<svg aria-hidden="true" style="position: absolute; width: 0; height: 0; overflow: hidden;" version="1.1" xmlns="http://www.w3.org/2000/svg" xmlns:xlink="http://www.w3.org/1999/xlink">
<defs>
<symbol id="agreement" viewBox="0 0 45 32">
<title>agreement</title>
<path d="M21.996 10.209c0 0 0-0.076-0.076-0.076-0.381 0-0.762 0-1.067 0-2.362 0.229-4.724 0.61-7.086 0.457-0.229 0-0.381 0.076-0.533 0.305-1.067 1.829-2.21 3.657-3.276 5.486-0.61 0.914-1.143 1.905-1.752 2.895 0.381 0.305 0.838 0.61 1.219 0.99 0.533-0.457 0.99-0.838 1.524-1.219s1.067-0.61 1.752-0.457c1.067 0.229 1.6 0.914 1.752 1.981 0.762-0.61 1.6-0.838 2.514-0.381s1.143 1.295 1.067 2.21c0.686 0 1.295 0.152 1.752 0.61 0.533 0.457 0.61 1.067 0.61 1.752 0.914-0.076 1.676 0.229 2.133 0.99 0.533 0.762 0.381 1.6 0 2.438 0.838 0.533 1.676 1.067 2.59 1.524 0.61 0.305 1.219 0 1.524-0.61 0.305-0.533 0.152-1.219-0.381-1.6-0.686-0.457-1.371-0.991-2.057-1.448-0.533-0.381-1.067-0.762-1.6-1.143-0.305-0.229-0.381-0.457-0.152-0.762 0.229-0.229 0.457-0.152 0.686 0l0.076 0.076c1.6 1.143 3.2 2.286 4.8 3.428 0.533 0.381 1.219 0.381 1.676 0 0.61-0.533 0.533-1.448-0.153-1.981-1.752-1.219-3.428-2.438-5.181-3.657-0.305-0.229-0.457-0.457-0.229-0.762s0.457-0.152 0.762 0c0.381 0.229 0.686 0.533 1.067 0.762 1.6 1.143 3.2 2.286 4.8 3.429 0.61 0.381 1.295 0.381 1.676-0.152 0.533-0.61 0.457-1.448-0.229-1.905-2.057-1.448-4.114-2.895-6.171-4.419-0.152-0.076-0.305-0.229-0.381-0.381s-0.076-0.381 0-0.533c0.076-0.076 0.305-0.152 0.457-0.152 0.076 0 0.229 0.152 0.305 0.229 2.133 1.524 4.267 3.048 6.4 4.571 0.61 0.381 1.295 0.305 1.753-0.229s0.381-1.295-0.153-1.752c-2.819-2.362-5.714-4.724-8.609-7.086-0.076-0.076-0.305-0.076-0.457-0.076-1.6 0.762-3.276 0.838-4.952 0.61-0.381-0.076-0.838-0.152-1.219-0.381-0.99-0.457-1.143-1.448-0.305-2.133 0.381-0.305 0.914-0.533 1.371-0.762 0.61-0.152 1.219-0.381 1.752-0.686z"></path>
<path d="M33.425 9.219c2.133 3.505 4.19 6.857 6.247 10.362 1.448-0.762 2.895-1.524 4.343-2.286 0.305-0.152 0.381-0.305 0.381-0.61 0-5.181 0-10.362 0-15.467 0-0.152 0-0.229 0-0.457-3.733 2.819-7.314 5.638-10.971 8.457z"></path>
<path d="M6.986 19.581c2.133-3.429 4.19-6.857 6.248-10.362-3.581-2.819-7.238-5.638-10.895-8.533 0 0.229 0 0.381 0 0.533 0 2.438 0 4.876 0 7.314 0 2.743 0 5.41 0 8.152 0 0.152 0.076 0.381 0.229 0.457 1.448 0.838 2.895 1.6 4.419 2.438z"></path>
<path d="M37.919 18.286c-0.076-0.152-0.152-0.305-0.229-0.381-1.295-2.133-2.59-4.267-3.886-6.4-0.229-0.381-0.457-1.067-0.762-1.143-0.381-0.152-0.914 0.229-1.371 0.457-1.067 0.61-2.057 0.457-3.048 0-0.99-0.381-1.981-0.686-2.971-0.99-0.533-0.152-1.143-0.152-1.676 0.152-1.295 0.762-2.59 1.6-4.038 2.133-0.305 0.152-0.686 0.305-0.686 0.762 0.076 0.457 0.533 0.533 0.838 0.533 0.99 0.076 1.981 0.152 2.971 0.076 0.61 0 1.295-0.152 1.752-0.533 0.686-0.533 1.219-0.381 1.676 0.229 2.971 2.438 5.867 4.876 8.838 7.314 0.914-0.686 1.752-1.448 2.59-2.21z"></path>
<path d="M12.929 25.829c0.229-0.076 0.533-0.152 0.686-0.305 1.067-0.838 2.133-1.676 3.124-2.514 0.61-0.457 0.61-1.143 0.152-1.752-0.457-0.533-1.219-0.61-1.752-0.152-1.067 0.838-2.057 1.676-3.124 2.514-0.457 0.381-0.533 0.914-0.381 1.371 0.229 0.457 0.686 0.762 1.295 0.838z"></path>
<path d="M15.749 27.886c0.229-0.152 0.533-0.229 0.762-0.381 0.838-0.686 1.676-1.372 2.514-2.057 0.61-0.457 0.686-1.219 0.229-1.752s-1.219-0.686-1.752-0.152c-0.838 0.686-1.676 1.371-2.59 2.057-0.457 0.381-0.533 0.914-0.381 1.372 0.152 0.533 0.61 0.914 1.219 0.914z"></path>
<path d="M10.491 23.315c0.229-0.076 0.533-0.152 0.762-0.305 0.61-0.457 1.219-0.99 1.829-1.448 0.61-0.533 0.686-1.219 0.152-1.752-0.457-0.533-1.219-0.61-1.752-0.152-0.61 0.457-1.219 0.99-1.829 1.448-0.457 0.381-0.61 0.914-0.381 1.371 0.229 0.533 0.686 0.838 1.219 0.838z"></path>
<path d="M20.701 25.6c-0.229 0.152-0.533 0.229-0.762 0.381-0.533 0.381-1.067 0.838-1.6 1.295s-0.61 1.219-0.229 1.752c0.457 0.533 1.219 0.686 1.752 0.229 0.61-0.457 1.219-0.99 1.752-1.447 0.381-0.381 0.533-0.838 0.305-1.295-0.152-0.533-0.61-0.838-1.219-0.914z"></path>
</symbol>
<symbol id="auction" viewBox="0 0 39 32">
<title>auction</title>
<path d="M20.725 2.496l3.657 4.818c0.348 0.464 0.987 0.522 1.393 0.174l0.639-0.522c0.987-0.755 1.219-2.206 0.464-3.193l-2.090-2.786c-0.755-0.987-2.206-1.219-3.193-0.464l-0.697 0.581c-0.464 0.348-0.522 0.987-0.174 1.393z"></path>
<path d="M17.88 12.307l-3.657-4.818c-0.348-0.464-0.987-0.522-1.393-0.174l-0.639 0.522c-0.987 0.755-1.219 2.206-0.464 3.193l2.090 2.786c0.755 0.987 2.206 1.219 3.193 0.464l0.639-0.522c0.464-0.406 0.581-1.045 0.232-1.451z"></path>
<path d="M37.444 28.677l-12.887-16.254c-0.116-0.116-0.174-0.174-0.29-0.29 0.406-0.348 0.464-0.929 0.116-1.393l-1.045-1.335 0.29-0.232c0.464-0.348 0.523-0.987 0.174-1.393l-3.657-4.818c-0.348-0.464-0.987-0.522-1.393-0.174l-3.773 2.844c-0.464 0.348-0.522 0.987-0.174 1.393l3.657 4.818c0.348 0.464 0.987 0.522 1.393 0.174l0.29-0.232 1.045 1.335c0.348 0.406 0.929 0.522 1.393 0.232 0.058 0.116 0.116 0.232 0.174 0.348l12.249 16.776c0.522 0.697 1.509 0.813 2.206 0.29 0.581-0.406 0.755-1.393 0.232-2.090z"></path>
<path d="M19.912 26.529h-14.629c-0.697 0-1.277-0.581-1.277-1.277v-0.29c0-0.696 0.58-1.277 1.277-1.277h14.57c0.697 0 1.277 0.581 1.277 1.277v0.29c0.058 0.755-0.522 1.277-1.219 1.277z"></path>
<path d="M23.453 31.231h-21.711v-0.348c0-1.451 1.161-2.612 2.612-2.612h16.486c1.451 0 2.612 1.161 2.612 2.612v0.348z"></path>
</symbol>
<symbol id="breaktime" viewBox="0 0 34 32">
<title>breaktime</title>
<path d="M14.817 20.185h-7.877c-1.357 0-2.462 1.104-2.462 2.462v1.477h9.354v0.985h-8.369c-0.543 0-0.985 0.442-0.985 0.985s0.442 0.985 0.985 0.985h1.477v0.985h-2.462c0 1.086 0.883 1.969 1.969 1.969h8.862c1.086 0 1.969-0.883 1.969-1.969h-9.354v-0.985h8.369c0.543 0 0.985-0.442 0.985-0.985s-0.442-0.985-0.985-0.985h-1.477v-0.985h2.462v-1.477c0-1.357-1.104-2.462-2.462-2.462zM8.909 22.154h-0.985v-0.985h0.985v0.985zM11.371 23.138h-0.985v-0.985h0.985v0.985zM13.832 22.154h-0.985v-0.985h0.985v0.985z"></path>
<path d="M10.878 17.23c4.343 0 7.877-3.534 7.877-7.877s-3.534-7.877-7.877-7.877c-4.343 0-7.877 3.534-7.877 7.877s3.534 7.877 7.877 7.877zM10.878 2.461c3.801 0 6.892 3.092 6.892 6.892 0 1.64-0.59 3.232-1.662 4.481l-0.747-0.641c0.811-0.945 1.299-2.119 1.403-3.348h-1.947v-0.985h1.944c-0.238-2.865-2.526-5.152-5.39-5.39v1.944h-0.985v-1.947c-1.229 0.104-2.402 0.591-3.348 1.403l-0.641-0.747c1.25-1.072 2.841-1.662 4.481-1.662zM12.355 8.861v0.985h-1.969v-2.954h0.985v1.969h0.985zM5.648 4.872l0.747 0.641c-0.811 0.945-1.299 2.119-1.403 3.348h1.947v0.985h-1.944c0.238 2.865 2.526 5.152 5.39 5.39v-1.944h0.985v1.947c1.229-0.104 2.402-0.591 3.348-1.403l0.641 0.747c-1.25 1.072-2.841 1.662-4.481 1.662-3.801 0-6.892-3.092-6.892-6.892 0-1.64 0.59-3.232 1.662-4.481z"></path>
<path d="M25.155 24.616c1.629 0 2.954-1.325 2.954-2.954s-1.325-2.954-2.954-2.954c-1.629 0-2.954 1.325-2.954 2.954s1.325 2.954 2.954 2.954zM23.186 20.185h3.938v0.985h-3.938v-0.985zM23.186 22.154h3.938v0.985h-3.938v-0.985z"></path>
<path d="M25.748 13.292l1.292-6.892h4.022v-0.985h-4.839l-1.477 7.877h-5.942c-0.017 0.034-0.032 0.069-0.049 0.102v0.882h12.8v-0.985h-5.807z"></path>
<path d="M20.541 27.569h6.584v0.985h-6.522l0.064 1.015c0.016 0.259 0.232 0.462 0.491 0.462h7.996c0.259 0 0.476-0.202 0.491-0.461l0.063-1.016h-1.599v-0.985h1.661l0.769-12.308h-10.767l0.77 12.308zM25.155 17.723c2.172 0 3.938 1.767 3.938 3.939s-1.767 3.938-3.938 3.938-3.938-1.767-3.938-3.938c0-2.172 1.767-3.939 3.938-3.939z"></path>
</symbol>
<symbol id="chat" viewBox="0 0 34 32">
<title>chat</title>
<path d="M26.191 0.667h-22.667c-0.737 0-1.333 0.597-1.333 1.333v16c0 0.737 0.597 1.333 1.333 1.333h4v6c0 0.25 0.139 0.479 0.361 0.593 0.219 0.112 0.487 0.097 0.693-0.051l9.159-6.543h8.453c0.737 0 1.333-0.597 1.333-1.333v-16c0-0.737-0.597-1.333-1.333-1.333z"></path>
<path d="M31.525 6h-2.667v12.667c0 1.105-0.895 2-2 2h-8.693l-5.6 4h6.091l7.832 5.221c0.207 0.137 0.47 0.148 0.684 0.033 0.217-0.116 0.353-0.342 0.353-0.588v-4.667h4c0.737 0 1.333-0.597 1.333-1.333v-16c0-0.737-0.597-1.333-1.333-1.333z"></path>
</symbol>
<symbol id="down-2" viewBox="0 0 20 32">
<title>down-2</title>
<path d="M19.298 20.652l-7.963 10.307c-0.372 0.484-1.191 0.484-1.6 0l-7.963-10.307c-0.223-0.298-0.26-0.707-0.112-1.042 0.186-0.335 0.521-0.558 0.893-0.558h4.019v-18.047c0-0.558 0.447-1.005 1.005-1.005h5.916c0.558 0 1.005 0.447 1.005 1.005v18.047h4.019c0.372 0 0.744 0.223 0.893 0.558 0.186 0.335 0.149 0.744-0.112 1.042z"></path>
</symbol>
<symbol id="down-3" viewBox="0 0 45 32">
<title>down-3</title>
<path d="M9.946 4.181c0.18 0 17.040-0.584 24.593 8.318l-1.034 0.809c-0.405 0.315-0.63 0.809-0.539 1.304 0.045 0.495 0.405 0.944 0.854 1.124l4.99 2.068c0.18 0.090 0.36 0.090 0.54 0.090 0.315 0 0.584-0.090 0.854-0.27 0.405-0.315 0.585-0.809 0.539-1.304l-0.674-5.35c-0.045-0.495-0.405-0.944-0.854-1.124s-0.989-0.135-1.394 0.18l-0.989 0.809c-8.407-10.071-26.211-9.486-26.976-9.442s-1.394 0.674-1.349 1.439c0.045 0.764 0.674 1.394 1.439 1.349z"></path>
<path d="M43.307 26.616h-2.698v-3.732c0-0.629-0.539-1.169-1.169-1.169h-6.294c-0.629 0-1.169 0.54-1.169 1.169v3.732h-3.237v-10.476c0-0.629-0.539-1.169-1.169-1.169h-6.294c-0.629 0-1.169 0.54-1.169 1.169v10.476h-3.282v-16.635c0-0.629-0.54-1.169-1.169-1.169h-6.249c-0.629 0-1.169 0.54-1.169 1.169v16.635h-3.417v-25.222c0-0.764-0.629-1.394-1.394-1.394s-1.394 0.629-1.394 1.394v26.661c0 0.765 0.629 1.394 1.394 1.394h39.879c0.765 0 1.394-0.629 1.394-1.394s-0.629-1.439-1.394-1.439z"></path>
</symbol>
<symbol id="globe" viewBox="0 0 34 32">
<title>globe</title>
<path d="M20.616 16.935c0.144-0.058 0.259-0.105 0.393 0.022 0.032 0.032 0.058 0.069 0.076 0.108 0.043 0.112-0.007 0.213-0.137 0.22-0.105 0.004-0.198-0.036-0.267-0.007-0.061 0.029-0.104 0.047-0.162-0.022-0.043-0.047-0.047-0.151-0.029-0.213 0.025-0.090 0.072-0.087 0.126-0.108z"></path>
<path d="M19.253 16.025c-0.007 0-0.029 0.151-0.029 0.177 0.032 0.022 0.079 0.104 0.043 0.184 0.188-0.018 0.292-0.032 0.437 0.108 0.004 0 0.029 0.025 0.032 0.025 0.043 0.032 0.108-0.213 0.116-0.241 0.007-0.032 0.040-0.043-0.036-0.054-0.134-0.022-0.285-0.213-0.26-0.223l-0.303 0.025z"></path>
<path d="M19.253 15.822l0.195-0.014c0.371-0.036 0.184 0.141 0.418 0.22 0.040 0.014 0.148 0.072 0.166 0.101 0.032-0.022 0.025 0.13 0.007 0.224-0.076 0.379-0.415 0.437-0.415 0.332-0.115-0.076-0.072-0.13-0.296-0.105-0.108 0.011-0.31 0.032-0.325-0.112-0.004-0.061 0.032-0.101 0.065-0.141-0.094-0.112-0.018-0.198-0.022-0.325-0.007-0.152 0.076-0.17 0.206-0.18z"></path>
<path d="M17.443 16.165h-0.004c0.108 0.115-0.007 0.166 0.221 0.292 0.166 0.094 0.275-0.025 0.3-0.025 0.014-0.022 0.007-0.094 0.004-0.122-0.282-0.029-0.268 0.068-0.521-0.144z"></path>
<path d="M17.313 16.064l-0.004 0.014c0.025 0.014 0.065 0.036 0.087 0.047-0.029-0.022-0.054-0.043-0.083-0.061z"></path>
<path d="M16.577 15.84c0.126-0.022 0.238 0.093 0.281 0.1 0.004 0.004 0.105-0.054 0.13-0.057-0.216-0.090-0.209-0.043-0.411-0.043z"></path>
<path d="M16.325 16.061l0.076 0.083c0.032-0.029-0.040-0.252 0.162-0.303-0.144 0.032-0.256 0.087-0.238 0.22z"></path>
<path d="M16.235 15.829c0.137-0.227 0.53-0.242 0.757-0.159 0.447 0.166 0.591 0.379 0.689 0.429 0.072 0.036 0.375-0.061 0.458 0.112 0.040 0.083 0.043 0.245-0.014 0.332 0.054 0.032-0.274 0.184-0.451 0.137-0.101-0.029-0.224-0.115-0.296-0.191-0.022-0.025-0.094-0.184-0.087-0.195-0.004 0-0.040-0.022-0.040-0.018-0.087-0.043-0.123-0.079-0.133-0.177-0.173-0.072-0.141 0.097-0.328 0.029 0 0-0.159-0.087-0.177-0.094-0.011 0.087 0.032 0.22-0.166 0.314-0.151 0.076-0.278-0.007-0.245-0.025-0.018-0.029-0.022-0.133-0.007-0.13 0.032-0.133-0.058-0.198 0.040-0.364z"></path>
<path d="M12.607 31.661c-0.328-0.144 0.184-0.119 0.263-0.097l0.494 0.007c0.855 0.025 1.515 0.101 2.434 0.061 0.508-0.022 0.916-0.061 1.37-0.155 0.011-0.004-0.332-1.464-0.209-1.799 0.148-0.415 0.346-0.847 0.523-1.284 0.188-0.465 0.516-1.334 0.656-1.778 0.097-0.321 0.346-1.194 0.011-1.403-0.224-0.137-0.602-0.375-0.811-0.545-0.234-0.184-0.256-0.285-0.343-0.516-0.090-0.238-0.328-0.819-0.454-1.024-0.123-0.195-0.407-0.433-0.591-0.602-0.094-0.083-0.022-0.332-0.022-0.332 0.050-0.332 0.144-1.002 0.335-1.327 0.032-0.058 0.559-0.469 0.559-0.469 0.025-0.014 0.025-0.011 0.029-0.076 0-0.072-0.050-0.912-0.119-0.894-0.029-0.097-0.061-0.18-0.079-0.238-0.036-0.090-0.26-0.025-0.26-0.025-0.206 0.032-0.332 0.079-0.566 0.022-0.242-0.058-0.462-0.209-0.671-0.35l-0.368-0.231c-0.087-0.050-0.087-0.050-0.112-0.155-0.054-0.231-0.094-0.343-0.321-0.458-0.209-0.105-0.447-0.177-0.674-0.22-0.389-0.072-0.386-0.144-0.606-0.407-0.252-0.296-0.599-0.029-1.049-0.224-0.112-0.047-0.188-0.112-0.343-0.18-0.307-0.137-0.526-0.307-0.804-0.523-0.415-0.325-0.508-0.458-0.631-0.966-0.105-0.433-0.202-0.599-0.393-1.010-0.148-0.321-0.13-0.292-0.303-0.548 0.169 0.382 0.245 0.559 0.274 0.977 0.022 0.296 0.022 0.31-0.224 0.123-0.422-0.306-0.458-0.494-0.682-0.923-0.242-0.458-0.123-0.335-0.18-0.786-0.054-0.418-0.169-0.552-0.299-0.927-0.177-0.505-0.328-1.341-0.169-1.861 0.162-0.526 0.649-1.107 0.822-1.659 0.094-0.288 0.317-1.446 0.35-1.738 0.036-0.317-0.025-0.595-0.4-0.53l-0.339 0.101c-0.252 0.065-0.873 0.188-1.089 0.011-0.195-0.159-0.054-0.415-0.040-0.404 0.13-0.173 0.523-0.242 0.736-0.418 0.188-0.159 0.343-0.364 0.577-0.545-0.206 0.101-0.483 0.263-0.653 0.058-0.88 0.555-1.709 1.219-2.477 1.983-5.643 5.647-5.643 14.803 0 20.446 1.958 1.958 4.338 3.238 6.848 3.837z"></path>
<path d="M28.375 10.154c0.418 0.775 0.757 1.579 1.010 2.362 0.955 2.975 0.443 8.654 0.422 7.364-0.040-0.040-0.234-0.26-0.184-0.656-0.004-1.165 0.436-1.273-0.418-1.875-0.281-0.198-0.519-0.631-0.8-0.916-0.18-0.184-0.169-0.27-0.227-0.512-0.029-0.126-0.223-1.529-0.314-1.493-0.256-0.736-0.274-0.869-0.353-1.662-0.101-1.013-0.263-1.107-0.548-1.983-0.105-0.339-0.159-0.368-0.397-0.627-0.252-0.299-0.512-0.696-0.775-0.948-0.195-0.184-0.205-0.252-0.205-0.526-0.004-0.375-0.047-0.325-0.332-0.566-0.35-0.306-0.353-0.404-0.833-0.537-0.512-0.148-0.545-0.256-0.873-0.638-0.115-0.13-0.249-0.245-0.335-0.375-0.108-0.155-0.137-0.274-0.299-0.454-0.252-0.281-0.804-0.674-1.139-0.869l-1.496-0.837c-0.144-0.094-0.227-0.159-0.433-0.242-0.22-0.083-0.562-0.173-0.808-0.184-0.425-0.018-0.642 0.234-0.815-0.025 0 0-0.072-0.151-0.234-0.209-0.191-0.065-0.642-0.094-0.901-0.13-0.418-0.058-0.858-0.058-1.381-0.058-0.393 0-1.197-0.004-1.489 0.036-0.444 0.058-1.857 0.476-2.34 0.645-0.209 0.076-0.609 0.231-0.631 0.332-0.011 0.043 0.112 0.162 0.162 0.224 0.090 0.105 0.159 0.231 0.292 0.296 0.141 0.069 0.465 0.097 0.671 0.141 0.216 0.043 0.22 0.040 0.343-0.101 0.058-0.065 0.815-0.617 0.862-0.498 0.422-0.155 0.609-0.245 0.93-0.040 0.126 0.083 0.397 0.184 0.544 0.112 0.242-0.115 0.328-0.447 0.728-0.498 0.083-0.011 0.909 0.014 0.901-0.007 0.447-0.069 0.649-0.242 1.204-0.144 0.343 0.058 1.175 0.314 1.424 0.545 0.076 0.069 0.112 0.133 0.148 0.216 0.040 0.094 0.029 0.087 0.141 0.083 0.169-0.007 0.303 0.011 0.418 0.173 0.267 0.364 0.043 0.883 0.418 1.634 0.076 0.148 0.177 0.332-0.011 0.415-0.162 0.069-0.537-0.036-0.714-0.105-0.822-0.317-1.669-1.186-2.347-1.763-0.234-0.198-0.267-0.213-0.537-0.209-0.281 0.007-0.411-0.018-0.653-0.144 0.054 0.339 1.031 0.746 1.392 1.057 0.231 0.198 0.292 0.476 0.292 0.75 0 0-0.018 0.173-0.029 0.195-0.004 0.007-0.188 0.335-0.148 0.361 0.126 0.090 0.371-0.13 0.635-0.018 0.263 0.115 0.494 0.501 0.847 0.718 0.043 0.025 0.512 0.299 0.516 0.299 0.018 0.018 0.263 0.321 0.267 0.321 0.014 0.032 0.307 0.242 0.307 0.242 0.342 0.133 0.566 0.097 0.588 0.548 0.018 0.389-0.101 0.66-0.537 0.707-0.375 0.040-0.721-0.097-0.844-0.462-0.083-0.242-0.014-0.382-0.317-0.267-0.548 0.206 0.079 0.375 0.202 0.624 0.069 0.141 0.004 0.35-0.018 0.548-0.022 0.184-0.043 0.371-0.184 0.411-0.238 0.069-0.555-0.444-0.883-0.166-0.076 0.061-0.144 0.166-0.213 0.27-0.227 0.35-0.296 0.346-0.48 0.591-0.357 0.462-0.206 0.902-0.465 1.266-0.213 0.303-0.642 0.407-0.754 0.537-0.173 0.202 0.047 1.269-0.155 1.468-0.13 0.13-0.278-0.018-0.353-0.137-0.202-0.31-0.238-0.555-0.703-0.613-0.375-0.047-0.804 0.047-1.165 0.054-0.328 0.007-0.963-0.123-1.233 0.065-0.141 0.097-0.191 0.306-0.227 0.472-0.090 0.404-0.137 0.746 0.007 1.14 0.108 0.31 0.252 0.436 0.599 0.436 0.27 0.004 0.617-0.083 0.786-0.296 0.123-0.159 0.115-0.332 0.422-0.422 0.245-0.072 0.425-0.011 0.425 0.263l-0.054 0.48c-0.043 0.393-0.054 0.472-0.256 0.746 0.159 0.083 0.779-0.014 0.999 0.058 0.281 0.090 0.108 0.278 0.079 0.609-0.018 0.22 0.014 0.519 0.069 0.732 0.047 0.188 0.624 0.234 0.797 0.26 0.155 0.022 0.624 0.058 0.746 0.029 0.169-0.040 0.227-0.476 0.768-0.599 0.094-0.022 1.107 0.079 1.107 0.079 0.242 0.069 0.573 0.169 0.811 0.108 0.389-0.101 0.469-0.252 0.916 0.018 0.014 0.011 0.173 0.119 0.173 0.119l0.516 0.462c0.382 0.328 0.361 0.343 0.851 0.353l0.4-0.007c0.126-0.007 0.231-0.014 0.346 0.133 0.209 0.263 0.26 0.714 0.764 0.909 0.209 0.083 0.541 0.119 0.718 0.22 0.13 0.072 0.148 0.162 0.195 0.184s0.303 0.047 0.433 0.083c0.202 0.054 0.404 0.155 0.62 0.256 0.274 0.126 0.415 0.224 0.472 0.555 0.086 0.487-0.17 0.923-0.429 1.305-0.249 0.364-0.393 0.664-0.512 1.096-0.209 0.768 0.018 1.082-0.952 1.605-0.786 0.422-1.161 0.425-1.648 1.266-0.296 0.512-0.379 1.139-0.992 1.363-0.343 0.123-0.819 0.054-0.981 0.191-0.087 0.072-0.123 0.407-0.278 0.501-0.108 0.068-0.505 0.155-0.66 0.18-0.386 0.069-0.303 0.094-0.407 0.303-0.025 0.047-0.216 0.245-0.234 0.22-0.541 0.386-0.494 0.544-0.779 0.995-0.169 0.27-0.198 0.397 0.184 0.508 0.429 0.126 0.808 0.004 1.255-0.043 0.133-0.022 0.433-0.144 0.465 0.007 0.032 0.148-0.436 0.213-0.584 0.26-0.873 0.274-1.583 0.476-2.355 0.595 3.245-0.299 6.411-1.688 8.895-4.176 4.796-4.792 5.517-12.113 2.171-17.67z"></path>
</symbol>
<symbol id="increase" viewBox="0 0 28 32">
<title>increase</title>
<path d="M8.445 21.284h-5.916c-0.558 0-1.005 0.446-1.005 1.005v8.372c0 0.558 0.446 1.005 1.005 1.005h5.916c0.558 0 1.005-0.447 1.005-1.005v-8.372c0-0.558-0.447-1.005-1.005-1.005z"></path>
<path d="M19.083 0h-5.916c-0.558 0-1.005 0.447-1.005 1.005v29.656c0 0.558 0.447 1.005 1.005 1.005h5.916c0.558 0 1.005-0.447 1.005-1.005v-29.656c0-0.558-0.446-1.005-1.005-1.005z"></path>
</symbol>
<symbol id="percent" viewBox="0 0 34 32">
<title>percent</title>
<path d="M15.976 19.027c0-0.44-0.13-0.869-0.375-1.235s-0.591-0.651-0.998-0.819c-0.406-0.168-0.853-0.212-1.284-0.127s-0.827 0.297-1.138 0.608c-0.311 0.311-0.523 0.707-0.608 1.138s-0.042 0.878 0.127 1.284c0.168 0.406 0.453 0.753 0.819 0.998s0.795 0.375 1.235 0.375c0.59 0 1.155-0.234 1.572-0.651s0.651-0.982 0.651-1.572zM12.827 19.027c0-0.182 0.054-0.36 0.155-0.511s0.245-0.269 0.412-0.339c0.168-0.070 0.353-0.088 0.531-0.052s0.342 0.123 0.471 0.252c0.129 0.129 0.216 0.292 0.252 0.471s0.017 0.363-0.052 0.531c-0.070 0.168-0.187 0.311-0.339 0.413s-0.329 0.155-0.511 0.155c-0.244 0-0.478-0.097-0.65-0.269s-0.269-0.406-0.269-0.65zM19.608 24.987c0.44 0 0.87-0.13 1.235-0.375s0.651-0.591 0.819-0.998 0.212-0.853 0.127-1.284c-0.086-0.431-0.298-0.827-0.608-1.138s-0.707-0.523-1.138-0.608c-0.431-0.086-0.878-0.042-1.284 0.126s-0.753 0.453-0.998 0.819-0.375 0.795-0.375 1.235c0.003 0.589 0.238 1.153 0.654 1.569s0.98 0.651 1.569 0.654zM19.608 21.845c0.182 0 0.36 0.054 0.511 0.155s0.269 0.245 0.338 0.412c0.070 0.168 0.088 0.353 0.052 0.531s-0.123 0.342-0.252 0.471-0.292 0.216-0.471 0.252c-0.178 0.035-0.363 0.017-0.531-0.052s-0.312-0.187-0.413-0.339c-0.101-0.151-0.155-0.329-0.155-0.511 0-0.244 0.097-0.478 0.269-0.65s0.406-0.269 0.65-0.269zM13.276 24.991c-0.154-0.132-0.249-0.319-0.266-0.521-0.008-0.097 0.004-0.196 0.034-0.288s0.079-0.179 0.143-0.253l5.825-7.009c0.098-0.115 0.227-0.198 0.373-0.239s0.299-0.037 0.443 0.011c0.143 0.048 0.269 0.137 0.361 0.257s0.146 0.264 0.155 0.415c0.008 0.097-0.004 0.195-0.034 0.288s-0.079 0.179-0.143 0.253l-5.825 6.996c-0.071 0.085-0.16 0.154-0.261 0.201s-0.21 0.072-0.321 0.072c-0.178-0-0.349-0.064-0.483-0.18zM22.216 12.735h-11.071c-0.129 0.001-0.253-0.049-0.345-0.139s-0.146-0.212-0.148-0.341v-1.208c0-0.179 0.041-0.356 0.118-0.518s0.189-0.305 0.328-0.418c1.089-0.876 2.269-1.633 3.52-2.257 0.018-0.009 0.034-0.023 0.045-0.040s0.017-0.038 0.016-0.058v-1.171c-0.17-0.289-0.285-0.606-0.34-0.936-0.129 0-0.303-0.194-0.49-0.851-0.255-0.899 0-1.021 0.245-1.021-0.043-0.121-0.076-0.245-0.099-0.371-0.090-0.39-0.090-0.795 0-1.185 0.111-0.459 0.347-0.878 0.681-1.212 0.192-0.197 0.408-0.37 0.643-0.514 0.191-0.134 0.399-0.241 0.62-0.317 0.182-0.063 0.373-0.099 0.565-0.109 0.492-0.053 0.988 0.052 1.416 0.3 0.28 0.148 0.516 0.369 0.681 0.64 0 0 1.144 0.082 0.766 2.397-0.023 0.126-0.056 0.25-0.099 0.371 0.228-0.020 0.497 0.112 0.245 1.021-0.187 0.657-0.357 0.841-0.49 0.851-0.056 0.327-0.171 0.641-0.34 0.926v1.181c-0 0.021 0.006 0.041 0.016 0.058s0.026 0.032 0.045 0.040c1.251 0.624 2.431 1.381 3.52 2.257 0.139 0.113 0.251 0.256 0.328 0.418s0.117 0.339 0.118 0.518v1.209c0 0.065-0.013 0.129-0.038 0.188s-0.061 0.114-0.107 0.159c-0.046 0.046-0.1 0.082-0.16 0.106s-0.124 0.037-0.189 0.036v-0.010zM32.66 29.307c0.139 0.113 0.251 0.256 0.328 0.418s0.117 0.339 0.118 0.518v1.208c0 0.13-0.052 0.255-0.144 0.347s-0.217 0.143-0.347 0.143h-11.071c-0.13 0-0.255-0.052-0.347-0.143s-0.144-0.217-0.144-0.347v-1.208c0.001-0.179 0.041-0.356 0.118-0.518s0.189-0.305 0.328-0.418c1.089-0.876 2.269-1.633 3.52-2.257 0.019-0.009 0.034-0.023 0.045-0.041s0.016-0.038 0.016-0.058v-1.168c-0.17-0.289-0.285-0.606-0.341-0.936-0.129 0-0.303-0.194-0.49-0.851-0.255-0.899 0-1.021 0.245-1.021-0.043-0.121-0.076-0.245-0.099-0.371-0.090-0.39-0.090-0.795 0-1.185 0.112-0.459 0.347-0.878 0.681-1.212 0.19-0.202 0.405-0.379 0.64-0.528 0.191-0.134 0.399-0.241 0.619-0.317 0.18-0.057 0.367-0.089 0.555-0.095 0.492-0.053 0.988 0.052 1.416 0.3 0.28 0.148 0.516 0.369 0.681 0.64 0 0 1.144 0.082 0.759 2.407-0.023 0.126-0.056 0.25-0.099 0.371 0.228-0.020 0.497 0.112 0.245 1.021-0.187 0.657-0.358 0.841-0.49 0.851-0.056 0.327-0.171 0.641-0.341 0.926v1.181c0 0.021 0.006 0.041 0.016 0.058s0.026 0.032 0.045 0.041c1.255 0.619 2.439 1.371 3.534 2.243zM11.816 31.942h-11.071c-0.13 0-0.255-0.052-0.347-0.143s-0.144-0.217-0.144-0.347v-1.208c0-0.179 0.041-0.356 0.118-0.518s0.189-0.305 0.328-0.418c1.089-0.876 2.269-1.633 3.52-2.257 0.019-0.009 0.034-0.023 0.045-0.041s0.017-0.038 0.016-0.058v-1.168c-0.169-0.289-0.285-0.606-0.34-0.936-0.129 0-0.303-0.194-0.49-0.851-0.255-0.899 0-1.021 0.245-1.021-0.043-0.121-0.076-0.245-0.099-0.371-0.090-0.39-0.090-0.795 0-1.185 0.111-0.459 0.347-0.878 0.681-1.212 0.19-0.202 0.405-0.379 0.64-0.528 0.191-0.134 0.399-0.241 0.62-0.317 0.182-0.063 0.373-0.099 0.565-0.109 0.492-0.053 0.988 0.052 1.416 0.3 0.28 0.148 0.516 0.369 0.681 0.64 0 0 1.144 0.082 0.759 2.407-0.023 0.126-0.056 0.25-0.099 0.371 0.228-0.020 0.497 0.112 0.245 1.021-0.187 0.657-0.357 0.841-0.49 0.851-0.056 0.327-0.171 0.641-0.34 0.926v1.181c-0 0.021 0.006 0.041 0.016 0.058s0.026 0.032 0.045 0.041c1.251 0.624 2.431 1.381 3.52 2.257 0.139 0.113 0.251 0.256 0.328 0.418s0.117 0.339 0.118 0.518v1.208c0 0.13-0.051 0.254-0.142 0.346s-0.215 0.144-0.344 0.145z"></path>
</symbol>
<symbol id="read" viewBox="0 0 28 32">
<title>read</title>
<path d="M16.655 10.126c-0.838 0.487-1.808 0.771-2.845 0.771s-2.007-0.284-2.845-0.771c-1.967 0.494-3.54 1.477-4.388 2.725l7.233 4.774 7.237-4.776c-0.848-1.246-2.434-2.231-4.391-2.722z"></path>
<path d="M2.271 17.94c0.011 0.002 0.021 0.006 0.032 0.008 0.121 0.021 0.239 0.050 0.354 0.093 0.010 0.003 0.019 0.008 0.028 0.012 0.116 0.045 0.227 0.101 0.334 0.167 0.005 0.003 0.009 0.005 0.014 0.008 0.106 0.067 0.206 0.146 0.301 0.231 0.011 0.010 0.023 0.019 0.034 0.030 0.090 0.084 0.173 0.177 0.25 0.277 0.013 0.016 0.025 0.031 0.037 0.048 0.074 0.1 0.141 0.206 0.202 0.319 0.010 0.019 0.020 0.038 0.030 0.058 0.058 0.115 0.11 0.235 0.152 0.36 0.006 0.019 0.012 0.038 0.018 0.058 0.041 0.13 0.075 0.263 0.098 0.402 0.002 0.014 0.003 0.029 0.006 0.043 0.022 0.147 0.036 0.296 0.036 0.45s-0.014 0.304-0.036 0.45c-0.002 0.014-0.003 0.029-0.006 0.043-0.023 0.139-0.057 0.272-0.098 0.402-0.006 0.019-0.011 0.039-0.018 0.057-0.043 0.125-0.094 0.245-0.152 0.36-0.010 0.019-0.020 0.039-0.030 0.058-0.061 0.112-0.128 0.219-0.202 0.319-0.012 0.016-0.024 0.032-0.037 0.047-0.077 0.099-0.16 0.192-0.25 0.277-0.011 0.010-0.023 0.019-0.034 0.030-0.095 0.086-0.195 0.164-0.301 0.231-0.005 0.003-0.009 0.005-0.013 0.008-0.107 0.066-0.218 0.122-0.334 0.167-0.010 0.004-0.019 0.008-0.028 0.012-0.114 0.043-0.232 0.072-0.354 0.093-0.011 0.002-0.021 0.007-0.032 0.008v4.371l11.254 4.341v-13.611l-11.254-4.342v4.119z"></path>
<path d="M3.623 20.5c0-1.109-0.735-2.011-1.639-2.011s-1.638 0.902-1.638 2.011c0 1.109 0.735 2.011 1.638 2.011s1.639-0.902 1.639-2.011z"></path>
<path d="M4.534 12.187l-1.382 1.361 8.293 3.2-6.91-4.561z"></path>
<path d="M25.635 18.489c-0.904 0-1.639 0.902-1.639 2.011s0.735 2.011 1.639 2.011 1.639-0.902 1.639-2.011c0-1.109-0.735-2.011-1.639-2.011z"></path>
<path d="M23.425 20.501c0-1.31 0.841-2.394 1.925-2.558v-4.122l-11.254 4.342v13.611l11.254-4.342v-4.373c-1.084-0.164-1.925-1.247-1.925-2.558z"></path>
<path d="M24.468 13.548l-1.382-1.361-6.91 4.561 8.293-3.2z"></path>
<path d="M18.925 5.21c0-2.82-2.294-5.115-5.115-5.115s-5.115 2.294-5.115 5.115c0 2.82 2.294 5.115 5.115 5.115s5.115-2.294 5.115-5.115z"></path>
</symbol>
<symbol id="up-2" viewBox="0 0 22 32">
<title>up-2</title>
<path d="M20.542 11.014l-7.963-10.307c-0.372-0.484-1.191-0.484-1.6 0l-7.963 10.307c-0.223 0.298-0.26 0.707-0.112 1.042 0.186 0.335 0.521 0.558 0.893 0.558h4.019v18.047c0 0.558 0.447 1.005 1.005 1.005h5.916c0.558 0 1.005-0.446 1.005-1.005v-18.047h4.019c0.372 0 0.744-0.223 0.893-0.558 0.186-0.335 0.149-0.744-0.112-1.042z"></path>
</symbol>
<symbol id="up-3" viewBox="0 0 42 32">
<title>up-3</title>
<path d="M40.224 28.033h-3.528v-15.936c0-0.498-0.415-0.913-0.913-0.913h-5.893c-0.498 0-0.913 0.415-0.913 0.913v15.936h-2.947v-10.375c0-0.498-0.415-0.913-0.913-0.913h-5.935c-0.498 0-0.913 0.415-0.913 0.913v10.375h-2.947v-6.433c0-0.498-0.415-0.913-0.913-0.913h-5.893c-0.498 0-0.913 0.415-0.913 0.913v6.433h-3.528v-11.496c0.249 0 0.498 0 0.788 0 1.992 0 5.271-0.166 8.881-0.955 6.806-1.536 11.994-4.731 15.106-9.338l1.12 0.54c0.166 0.083 0.332 0.125 0.498 0.125 0.207 0 0.415-0.083 0.623-0.207 0.332-0.207 0.498-0.581 0.457-0.996l-0.373-4.69c-0.042-0.373-0.249-0.747-0.623-0.913-0.332-0.166-0.747-0.124-1.079 0.083l-3.901 2.615c-0.332 0.208-0.498 0.581-0.498 0.996 0.041 0.373 0.249 0.747 0.623 0.913l1.162 0.581c-6.142 8.715-19.090 9.13-22.784 9.047v-12.077c0-0.623-0.498-1.079-1.079-1.079s-1.121 0.456-1.121 1.079v26.893c0 0.623 0.498 1.079 1.079 1.079h37.226c0.623 0 1.079-0.498 1.079-1.079s-0.457-1.12-1.038-1.12z"></path>
</symbol>
<symbol id="vote" viewBox="0 0 30 32">
<title>vote</title>
<path d="M19.004 1.707c-2.668 1.051-5.524 2.482-8.731 3.99-1.62 2.023-2.025 6.475-2.43 9.712l4.456-5.665 4.051 4.047c-2.025 2.428-4.051 4.047-3.241 5.261 0.81 0.809 2.025 0.405 3.241-0.809 3.638-3.23 6.076-4.451 6.076-8.498l5.671-2.85v-6.879c-2.787-0.132-6.607 0.725-9.092 1.693zM12.374 10.97l-3.899 4.944c-0.269 0.342-0.834 0.397-1.165 0.114l-5.949 7.474 6.658 6.070h4.785l9.215-10.521-2.468-2.466c-0.792 0.682-1.672 1.386-2.633 2.238-0.009 0.009-0.016 0.017-0.025 0.025-0.663 0.657-1.346 1.135-2.101 1.34-0.765 0.209-1.657 0.039-2.253-0.556-0.038-0.038-0.072-0.081-0.101-0.126-0.335-0.502-0.384-1.146-0.228-1.669s0.452-0.987 0.81-1.454c0.586-0.766 1.411-1.638 2.215-2.554l-2.861-2.858zM1.361 29.958v1.619l23.494 0.018v-1.619l-23.494-0.018z"></path>
</symbol>
<symbol id="home" viewBox="0 0 32 32">
<title>home</title>
<path d="M12.8 30v-10h6.4v10h8v-14h4.8l-16-14-16 14h4.8v14h8z"></path>
</symbol>
<symbol id="image" viewBox="0 0 32 32">
<title>image</title>
<path d="M29.548 2h-27.097c-0.249 0-0.452 0.202-0.452 0.452v27.096c0 0.25 0.202 0.452 0.452 0.452h27.097c0.249 0 0.452-0.202 0.452-0.452v-27.096c0-0.25-0.202-0.452-0.452-0.452zM28.25 28.26h-24.5v-24.509h24.5v24.509z"></path>
<path d="M13.008 13.519c1.247 0 2.258-1.011 2.258-2.258s-1.011-2.258-2.258-2.258c-1.247 0-2.258 1.011-2.258 2.258s1.011 2.258 2.258 2.258z"></path>
<path d="M26.435 25.977l-6.222-8.077c-0.068-0.088-0.178-0.143-0.3-0.149s-0.24 0.037-0.319 0.117l-3.736 3.771 1.73 2.351-6.012-4.147c-0.081-0.057-0.186-0.082-0.289-0.071-0.103 0.010-0.198 0.057-0.261 0.128l-5.444 6.058c-0.091 0.102-0.107 0.239-0.042 0.355s0.201 0.188 0.349 0.188h20.222c0.143 0 0.275-0.068 0.343-0.178s0.060-0.242-0.019-0.346z"></path>
</symbol>
<symbol id="camera" viewBox="0 0 32 32">
<title>camera</title>
<path d="M16 24c-3.4 0-6-2.6-6-6s2.6-6 6-6c3.4 0 6 2.6 6 6s-2.6 6-6 6zM30 8h-5l-3.4-5.2c-0.4-0.4-1-0.8-1.6-0.8h-8c-0.6 0-1.2 0.4-1.6 0.8l-3.4 5.2h-5c-1.2 0-2 0.8-2 2v18c0 1.2 0.8 2 2 2h28c1.2 0 2-0.8 2-2v-18c0-1.2-0.8-2-2-2z"></path>
</symbol>
<symbol id="check" viewBox="0 0 32 32">
<title>check</title>
<path d="M11.2 19.199l-6.4-6.4-4.8 4.8 11.2 11.2 20.8-20.8-4.8-4.8-16 16z"></path>
</symbol>
<symbol id="close" viewBox="0 0 32 32">
<title>close</title>
<path d="M31.314 0.686c-0.914-0.914-2.286-0.914-3.2 0l-12.114 12.114-12.114-12.114c-0.914-0.914-2.286-0.914-3.2 0s-0.914 2.286 0 3.2l12.114 12.114-12.114 12.114c-0.914 0.914-0.914 2.286 0 3.2 0.457 0.457 0.914 0.686 1.6 0.686s1.143-0.229 1.6-0.686l12.114-12.114 12.114 12.114c0.457 0.457 1.143 0.686 1.6 0.686s1.143-0.229 1.6-0.686c0.914-0.914 0.914-2.286 0-3.2l-12.114-12.114 12.114-12.114c0.914-0.914 0.914-2.286 0-3.2z"></path>
</symbol>
<symbol id="comment" viewBox="0 0 32 32">
<title>comment</title>
<path d="M2 0h28c0.53 0 1.039 0.211 1.414 0.586s0.586 0.884 0.586 1.414v20c0 0.53-0.211 1.039-0.586 1.414s-0.884 0.586-1.414 0.586h-10l-12 8v-8h-6c-0.53 0-1.039-0.211-1.414-0.586s-0.586-0.884-0.586-1.414v-20c0-0.53 0.211-1.039 0.586-1.414s0.884-0.586 1.414-0.586v0z"></path>
</symbol>
<symbol id="dark-light" viewBox="0 0 32 32">
<title>dark-light</title>
<path d="M15.999 8.084c-4.345 0-7.915 3.537-7.915 7.915s3.57 7.916 7.915 7.916 7.916-3.57 7.916-7.916c0-4.345-3.57-7.915-7.916-7.915zM15.999 21.692v-11.385c3.133 0 5.693 2.56 5.693 5.692s-2.56 5.693-5.693 5.693z"></path>
<path d="M16 5.996c0.606 0 1.112-0.505 1.112-1.112v-3.772c0-0.606-0.505-1.112-1.112-1.112s-1.112 0.505-1.112 1.112v3.772c0 0.606 0.505 1.112 1.112 1.112z"></path>
<path d="M7.377 8.926c0.202 0.202 0.505 0.337 0.775 0.337s0.573-0.101 0.775-0.337c0.438-0.438 0.438-1.145 0-1.549l-2.695-2.695c-0.438-0.438-1.145-0.438-1.549 0s-0.438 1.145 0 1.549l2.695 2.695z"></path>
<path d="M5.996 15.999c0-0.606-0.505-1.112-1.112-1.112h-3.772c-0.606 0-1.112 0.505-1.112 1.112s0.505 1.112 1.112 1.112h3.772c0.606 0 1.112-0.505 1.112-1.112z"></path>
<path d="M7.377 23.073l-2.695 2.695c-0.438 0.438-0.438 1.145 0 1.549 0.202 0.202 0.505 0.337 0.775 0.337s0.573-0.101 0.775-0.337l2.695-2.695c0.438-0.438 0.438-1.145 0-1.549-0.438-0.438-1.145-0.438-1.549 0z"></path>
<path d="M16 26.002c-0.606 0-1.112 0.505-1.112 1.111v3.773c0 0.606 0.505 1.112 1.112 1.112s1.112-0.505 1.112-1.112v-3.773c0-0.606-0.505-1.111-1.112-1.111z"></path>
<path d="M24.621 23.073c-0.438-0.438-1.145-0.438-1.549 0s-0.438 1.145 0 1.549l2.695 2.695c0.202 0.202 0.505 0.337 0.775 0.337s0.573-0.101 0.775-0.337c0.438-0.438 0.438-1.145 0-1.549l-2.695-2.695z"></path>
<path d="M30.888 14.888h-3.773c-0.606 0-1.111 0.505-1.111 1.112s0.505 1.112 1.111 1.112h3.773c0.606 0 1.111-0.505 1.111-1.112s-0.505-1.112-1.111-1.112z"></path>
<path d="M23.847 9.262c0.27 0 0.573-0.101 0.775-0.337l2.695-2.695c0.438-0.438 0.438-1.145 0-1.549s-1.145-0.438-1.549 0l-2.695 2.695c-0.438 0.438-0.438 1.145 0 1.549 0.202 0.236 0.505 0.337 0.775 0.337z"></path>
</symbol>
<symbol id="down-1" viewBox="0 0 32 32">
<title>down-1</title>
<path d="M6 10l10 12 10-12h-20z"></path>
</symbol>
<symbol id="down-21" viewBox="0 0 32 32">
<title>down-21</title>
<path d="M16 22.8l-10.8-10.8 2.8-2.8 8 8 8-8 2.8 2.8-10.8 10.8z"></path>
</symbol>
<symbol id="email" viewBox="0 0 32 32">
<title>email</title>
<path d="M30.667 2h-29.333c-0.8 0-1.333 0.533-1.333 1.333v24c0 0.8 0.533 1.333 1.333 1.333h29.333c0.8 0 1.333-0.533 1.333-1.333v-24c0-0.8-0.533-1.333-1.333-1.333zM27.6 8.4l-10.667 9.333c-0.267 0.133-0.667 0.267-0.933 0.267s-0.667-0.133-0.933-0.267l-10.667-9.333c-0.533-0.533-0.667-1.333-0.133-1.867s1.333-0.667 1.867-0.133l9.733 8.533 9.733-8.533c0.533-0.533 1.333-0.4 1.867 0.133 0.667 0.533 0.667 1.333 0.133 1.867z"></path>
</symbol>
<symbol id="events-hot" viewBox="0 0 32 32">
<title>events-hot</title>
<path d="M22 6l4.072 3.672-7.808 7.8-6.4-6.4-11.864 11.864 2.264 2.264 9.6-9.6 6.4 6.4 10.064-10.072 3.672 4.104v-10.032h-10z"></path>
</symbol>
<symbol id="facebook" viewBox="0 0 32 32">
<title>facebook</title>
<path d="M22.912 10.485l-0.582 5.515h-4.409v16h-6.622v-16h-3.3v-5.515h3.3v-3.32c0-4.486 1.865-7.164 7.168-7.164h4.407v5.515h-2.758c-2.058 0-2.195 0.777-2.195 2.214v2.756h4.99z"></path>
</symbol>
<symbol id="full-screen" viewBox="0 0 32 32">
<title>full-screen</title>
<path d="M4 12h-4v-10c0-1.2 0.8-2 2-2h10v4h-8v8z"></path>
<path d="M32 12h-4v-8h-8v-4h10c1.2 0 2 0.8 2 2v10z"></path>
<path d="M30 32h-10v-4h8v-8h4v10c0 1.2-0.8 2-2 2z"></path>
<path d="M12 32h-10c-1.2 0-2-0.8-2-2v-10h4v8h8v4z"></path>
</symbol>
<symbol id="google" viewBox="0 0 32 32">
<title>google</title>
<path fill="#3e82f1" style="fill: var(--color1, #3e82f1)" d="M31.706 13.088h-15.381v6.193h8.786c-0.376 2.004-1.532 3.694-3.256 4.827l5.274 4.018c3.091-2.786 4.87-6.885 4.87-11.757 0-1.142-0.101-2.229-0.293-3.281z"></path>
<path fill="#32a753" style="fill: var(--color2, #32a753)" d="M21.856 24.108c-1.458 0.962-3.329 1.528-5.53 1.528-4.256 0-7.851-2.813-9.135-6.598l-5.457 4.153c2.687 5.223 8.209 8.809 14.592 8.809 4.412 0 8.108-1.429 10.804-3.874l-5.274-4.018z"></path>
<path fill="#f9bb00" style="fill: var(--color3, #f9bb00)" d="M7.191 12.962l-5.457-4.144c-1.101 2.157-1.733 4.602-1.733 7.182s0.633 5.025 1.733 7.182l5.457-4.144c-0.33-0.962-0.514-1.987-0.514-3.038s0.183-2.076 0.514-3.038z"></path>
<path fill="#e74133" style="fill: var(--color4, #e74133)" d="M16.326 0c-6.383 0-11.905 3.587-14.592 8.818l5.457 4.144c1.284-3.784 4.879-6.598 9.135-6.598 2.394 0 4.549 0.809 6.237 2.391l4.687-4.593c-2.825-2.58-6.521-4.162-10.923-4.162z"></path>
</symbol>
<symbol id="infographic" viewBox="0 0 32 32">
<title>infographic</title>
<path d="M11.948 13.608c-0.87 1.149-1.419 2.437-1.602 3.908h5.448l-3.845-3.908z"></path>
<path d="M17.396 5.057c-2.884 0.23-5.448 1.287-7.645 3.172l7.645 7.678v-10.851z"></path>
<path d="M0 19.725c0.229 4.276 1.785 8.046 4.624 11.264l11.216-11.264c0 0-15.84 0-15.84 0z"></path>
<path d="M9.843 28.873c2.152 1.885 4.669 2.942 7.554 3.126v-10.713l-7.554 7.586z"></path>
<path d="M19.64 26.896c1.465-0.184 2.747-0.736 3.937-1.655l-3.937-3.954v5.609z"></path>
<path d="M21.196 19.725l7.645 7.678c1.923-2.207 2.976-4.782 3.159-7.678h-10.804z"></path>
<path d="M31.863 17.471c-0.229-2.851-1.236-5.379-3.113-7.586l-7.554 7.586h10.667z"></path>
<path d="M30.81 4.644c-3.159-2.851-6.913-4.414-11.17-4.644v15.908l11.17-11.264z"></path>
</symbol>
<symbol id="left-1" viewBox="0 0 32 32">
<title>left-1</title>
<path d="M22 6l-12 10 12 10v-20z"></path>
</symbol>
<symbol id="left-2" viewBox="0 0 32 32">
<title>left-2</title>
<path d="M20 5.2l2.8 2.8-8 8 8 8-2.8 2.8-10.8-10.8 10.8-10.8z"></path>
</symbol>
<symbol id="like" viewBox="0 0 32 32">
<title>like</title>
<path d="M26.558 11.981h-8.587v-7.987c0-2.995-1.598-3.994-3.994-3.994-0.599 0-1.198 0.399-1.198 0.998 0 0-4.593 14.977-4.793 14.977v15.975h17.173c2.596 0 4.793-1.997 5.192-4.593l1.597-9.186c0.2-1.598-0.2-3.195-1.198-4.193-0.998-1.398-2.596-1.997-4.193-1.997z"></path>
<path d="M3.994 15.976h-3.994v15.975h3.994v-15.975z"></path>
</symbol>
<symbol id="link" viewBox="0 0 32 32">
<title>link</title>
<path d="M9 32c-2.4 0-4.6-1-6.4-2.6-3.6-3.6-3.6-9.2 0-12.8l1.4-1.4 2.8 2.8-1.4 1.4c-2 2-2 5.2 0 7.2s5.2 2 7.2 0l6-6c2-2 2-5.2 0-7.2l-1.4-1.4 2.8-2.8 1.4 1.4c3.6 3.6 3.6 9.2 0 12.8l-6 6c-1.6 1.6-4 2.6-6.4 2.6z"></path>
<path d="M12 22.8l-1.4-1.4c-3.6-3.6-3.6-9.2 0-12.8l6-6c1.8-1.8 4-2.6 6.4-2.6s4.6 1 6.4 2.6c3.6 3.6 3.6 9.2 0 12.8l-1.4 1.4-2.8-2.8 1.4-1.4c2-2 2-5.2 0-7.2s-5.2-2-7.2 0l-6 6c-2 2-2 5.2 0 7.2l1.4 1.4-2.8 2.8z"></path>
</symbol>
<symbol id="longform" viewBox="0 0 32 32">
<title>longform</title>
<path d="M32 13.32h-5.32v-13.32l-10.68 18.68h5.32v13.32l10.68-18.68z"></path>
<path d="M13.32 16h-13.32v2.68h13.32v-2.68z"></path>
<path d="M16.001 10.681h-13.32v2.68h13.32v-2.68z"></path>
<path d="M18.68 5.319h-10.68v2.68h10.68v-2.68z"></path>
<path d="M18.681 21.319h-16v2.68h16v-2.68z"></path>
</symbol>
<symbol id="more" viewBox="0 0 32 32">
<title>more</title>
<path d="M18 0v6h-6v-6h6z"></path>
<path d="M18 12v6h-6v-6h6z"></path>
<path d="M18 24v6h-6v-6h6z"></path>
</symbol>
<symbol id="play" viewBox="0 0 32 32">
<title>play</title>
<path d="M13.334 22l8-6-8-6v12zM16 2.667c-7.367 0-13.333 5.967-13.333 13.333s5.967 13.333 13.333 13.333c7.367 0 13.333-5.967 13.333-13.333s-5.967-13.333-13.333-13.333zM16 26.667c-5.88 0-10.667-4.787-10.667-10.667s4.787-10.667 10.667-10.667c5.88 0 10.667 4.787 10.667 10.667s-4.787 10.667-10.667 10.667z"></path>
</symbol>
<symbol id="printer" viewBox="0 0 32 32">
<title>printer</title>
<path d="M27.2 8h-22.4c-2.656 0-4.8 2.144-4.8 4.8v9.6h6.4v6.4h19.2v-6.4h6.4v-9.6c0-2.656-2.144-4.8-4.8-4.8zM22.4 25.6h-12.8v-8h12.8v8zM27.2 14.4c-0.88 0-1.6-0.72-1.6-1.6s0.72-1.6 1.6-1.6c0.88 0 1.6 0.72 1.6 1.6s-0.72 1.6-1.6 1.6zM25.6 0h-19.2v6.4h19.2v-6.4z"></path>
</symbol>
<symbol id="refresh" viewBox="0 0 32 32">
<title>refresh</title>
<path d="M31.775 13.972l-1.239-13.972-4.394 4.394c-2.817-2.479-6.535-3.944-10.366-3.944-8.676 0-15.775 7.099-15.775 15.775s7.099 15.775 15.775 15.775c5.634 0 10.817-3.042 13.634-7.887l-3.944-2.253c-2.028 3.493-5.746 5.634-9.803 5.634-6.197 0-11.268-5.070-11.268-11.268s5.070-11.268 11.268-11.268c2.704 0 5.183 0.901 7.211 2.592l-5.183 5.183 14.085 1.239z"></path>
</symbol>
<symbol id="right-1" viewBox="0 0 32 32">
<title>right-1</title>
<path d="M10 26l12-10-12-10v20z"></path>
</symbol>
<symbol id="right-2" viewBox="0 0 32 32">
<title>right-2</title>
<path d="M12 26.8l-2.8-2.8 8-8-8-8 2.8-2.8 10.8 10.8-10.8 10.8z"></path>
</symbol>
<symbol id="search" viewBox="0 0 32 32">
<title>search</title>
<path d="M22.87 20.126h-1.445l-0.512-0.494c1.793-2.086 2.872-4.794 2.872-7.739 0-6.568-5.324-11.893-11.893-11.893s-11.893 5.324-11.893 11.893c0 6.568 5.324 11.892 11.893 11.892 2.946 0 5.654-1.079 7.739-2.872l0.494 0.512v1.445l9.148 9.13 2.726-2.726-9.13-9.148zM11.893 20.126c-4.556 0-8.233-3.678-8.233-8.233s3.678-8.233 8.233-8.233c4.556 0 8.233 3.678 8.233 8.233s-3.678 8.233-8.233 8.233z"></path>
</symbol>
<symbol id="sent" viewBox="0 0 32 32">
<title>sent</title>
<path d="M29.486 2.512c-0.478-0.476-1.19-0.639-1.825-0.409l-24.5 8.75c-0.66 0.235-1.116 0.842-1.158 1.54-0.042 0.7 0.336 1.356 0.964 1.671l8.025 4.011 10.256-7.325-7.327 10.258 4.011 8.025c0.299 0.593 0.906 0.966 1.566 0.966 0.037 0 0.072-0.002 0.107-0.004 0.7-0.042 1.307-0.497 1.544-1.158l8.75-24.499c0.226-0.635 0.065-1.347-0.413-1.825z"></path>
</symbol>
<symbol id="share" viewBox="0 0 32 32">
<title>share</title>
<path d="M24.096 22.618c-1.221 0-2.313 0.482-3.149 1.237l-11.454-6.667c0.080-0.369 0.145-0.739 0.145-1.125s-0.064-0.755-0.145-1.124l11.325-6.602c0.868 0.803 2.008 1.301 3.277 1.301 2.667 0 4.819-2.153 4.819-4.819s-2.153-4.819-4.819-4.819c-2.667 0-4.819 2.153-4.819 4.819 0 0.386 0.064 0.755 0.145 1.125l-11.325 6.602c-0.867-0.803-2.008-1.301-3.277-1.301-2.667 0-4.819 2.153-4.819 4.819s2.153 4.819 4.819 4.819c1.269 0 2.41-0.498 3.277-1.301l11.438 6.683c-0.080 0.337-0.129 0.691-0.129 1.044 0 2.586 2.104 4.691 4.691 4.691s4.691-2.104 4.691-4.691c0-2.586-2.104-4.691-4.691-4.691z"></path>
</symbol>
<symbol id="slide-show" viewBox="0 0 32 32">
<title>slide-show</title>
<path d="M3.047 32h16c0.689-0.001 1.358-0.241 1.897-0.682s0.915-1.056 1.069-1.744c-0.219 0.052-0.445 0.084-0.68 0.084h-16c-0.808 0-1.583-0.329-2.155-0.914s-0.893-1.38-0.893-2.208v-16.39c0-0.24 0.032-0.471 0.082-0.696-0.672 0.157-1.272 0.543-1.702 1.095s-0.665 1.237-0.666 1.943v16.39c0 0.828 0.321 1.622 0.893 2.208s1.347 0.914 2.155 0.914z"></path>
<path d="M7.62 27.317h16c0.689-0.001 1.358-0.241 1.897-0.682s0.915-1.055 1.069-1.744c-0.219 0.052-0.445 0.084-0.68 0.084h-16c-0.808 0-1.583-0.329-2.155-0.914s-0.893-1.38-0.893-2.208v-16.39c0-0.24 0.032-0.471 0.082-0.696-0.672 0.157-1.272 0.543-1.702 1.095s-0.665 1.237-0.666 1.943v16.39c0 0.828 0.321 1.622 0.893 2.208s1.347 0.914 2.155 0.914z"></path>
<path d="M9.143 3.122c0-0.828 0.321-1.622 0.893-2.208s1.347-0.914 2.155-0.914h16c0.808 0 1.584 0.329 2.155 0.914s0.893 1.38 0.893 2.208v16.39c0 0.828-0.321 1.622-0.893 2.208s-1.347 0.914-2.155 0.914h-16c-0.808 0-1.583-0.329-2.155-0.914s-0.893-1.38-0.893-2.208v-16.39z"></path>
</symbol>
<symbol id="sound" viewBox="0 0 32 32">
<title>sound</title>
<path d="M19.2 1.475c-0.5-0.2-1-0.2-1.4 0.1l-10.3 7.7h-6.2c-0.7 0-1.3 0.6-1.3 1.3v10.7c0 0.7 0.6 1.3 1.3 1.3h6.2l10.3 7.7c0.2 0.2 0.5 0.3 0.8 0.3 0.2 0 0.4 0 0.6-0.1 0.5-0.2 0.7-0.7 0.7-1.2v-26.6c0-0.5-0.2-1-0.7-1.2z"></path>
<path d="M24.3 10.275l-0.9-0.9-1.9 1.9 0.9 0.9c2.1 2.1 2.1 5.5 0 7.5l-0.9 0.9 1.9 1.9 0.9-0.9c3.1-3.1 3.1-8.1 0-11.3z"></path>
<path d="M27.1 5.575l-1.9 1.9 0.9 0.9c4.2 4.2 4.2 10.9 0 15.1l-0.9 0.9 1.9 1.9 0.9-0.9c5.2-5.2 5.2-13.7 0-18.9l-0.9-0.9z"></path>
</symbol>
<symbol id="tags" viewBox="0 0 32 32">
<title>tags</title>
<path d="M21.119 14.241c0.773-0.773 1.803-0.773 2.576 0s0.773 1.803 0 2.575c-0.773 0.773-1.803 0.773-2.576 0s-0.773-1.803 0-2.575zM1.803 25.058h20.604c0.515 0 0.901-0.129 1.288-0.515l7.726-7.726c0.773-0.773 0.773-1.803 0-2.575l-7.726-7.726c-0.386-0.386-0.773-0.515-1.288-0.515h-20.604c-0.515 0-0.901 0.129-1.288 0.515s-0.515 0.773-0.515 1.288v15.453c0 1.030 0.773 1.803 1.803 1.803z"></path>
</symbol>
<symbol id="twitter" viewBox="0 0 32 32">
<title>twitter</title>
<path d="M32 6c-1.2 0.6-2.4 0.8-3.8 1 1.4-0.8 2.4-2 2.8-3.6-1.2 0.8-2.6 1.2-4.2 1.6-1.2-1.2-3-2-4.8-2-3.4 0-6.4 3-6.4 6.6 0 0.6 0 1 0.2 1.4-5.4-0.2-10.4-2.8-13.6-6.8-0.6 1-0.8 2-0.8 3.4 0 2.2 1.2 4.2 3 5.4-1 0-2-0.4-3-0.8 0 3.2 2.2 5.8 5.2 6.4-0.6 0.2-1.2 0.2-1.8 0.2-0.4 0-0.8 0-1.2-0.2 0.8 2.6 3.2 4.6 6.2 4.6-2.2 1.8-5 2.8-8.2 2.8h-1.6c3 1.8 6.4 3 10 3 12 0 18.6-10 18.6-18.6v-0.8c1.4-1 2.6-2.2 3.4-3.6z"></path>
</symbol>
<symbol id="up-1" viewBox="0 0 32 32">
<title>up-1</title>
<path d="M26 22l-10-12-10 12h20z"></path>
</symbol>
<symbol id="up-21" viewBox="0 0 32 32">
<title>up-21</title>
<path d="M16 9.2l10.8 10.8-2.8 2.8-8-8-8 8-2.8-2.8 10.8-10.8z"></path>
</symbol>
<symbol id="video" viewBox="0 0 32 32">
<title>video</title>
<path d="M22 12v-6c0-1.2-0.8-2-2-2h-18c-1.2 0-2 0.8-2 2v20c0 1.2 0.8 2 2 2h18c1.2 0 2-0.8 2-2v-6l10 4v-16l-10 4z"></path>
</symbol>
<symbol id="zoom" viewBox="0 0 32 32">
<title>zoom</title>
<path d="M21.529 3.765c-1.040 0-1.883-0.843-1.883-1.883s0.843-1.882 1.883-1.882h8.471c1.039 0 1.882 0.844 1.882 1.882v8.471c0 1.039-0.843 1.882-1.882 1.882s-1.882-0.843-1.882-1.882v-3.927l-6.904 6.904c-0.735 0.735-1.927 0.735-2.662 0s-0.735-1.927 0-2.662l6.904-6.904h-3.927z"></path>
<path d="M10.353 28.117c1.040 0 1.883 0.843 1.883 1.883s-0.843 1.882-1.883 1.882h-8.471c-1.039 0-1.882-0.844-1.882-1.882v-8.471c0-1.039 0.843-1.882 1.882-1.882s1.882 0.843 1.882 1.882v3.927l6.904-6.904c0.735-0.735 1.927-0.735 2.662 0s0.735 1.927 0 2.662l-6.904 6.904h3.927z"></path>
</symbol>
</defs>
</svg>
