<?xml version="1.0" encoding="UTF-8"?>
<svg width="38px" height="34px" viewBox="0 0 38 34" version="1.1" xmlns="http://www.w3.org/2000/svg" xmlns:xlink="http://www.w3.org/1999/xlink">
    <title>archway</title>
    <g id="Page-1" stroke="none" stroke-width="1" fill="none" fill-rule="evenodd">
        <g id="archway" fill="#BC9E6C" fill-rule="nonzero">
            <path d="M37.4722222,2.125 C37.7625,2.125 38,1.8859375 38,1.59375 L38,0.53125 C38,0.2390625 37.7625,0 37.4722222,0 L0.527777778,0 C0.2375,0 0,0.2390625 0,0.53125 L0,1.59375 C0,1.8859375 0.2375,2.125 0.527777778,2.125 L2.11111111,2.125 L2.11111111,31.875 L0.527777778,31.875 C0.2375,31.875 0,32.1140625 0,32.40625 L0,33.46875 C0,33.7609375 0.2375,34 0.527777778,34 L11.6111111,34 C12.1943056,34 12.6666667,33.5245312 12.6666667,32.9375 L12.6666667,21.25 C12.6666667,17.7344531 15.5074306,14.875 19,14.875 C22.4925694,14.875 25.3333333,17.7344531 25.3333333,21.25 L25.3333333,31.875 L25.3346528,32.9375 C25.3346528,33.5245312 25.8070139,34 26.3902083,34 L37.4722222,34 C37.7625,34 38,33.7609375 38,33.46875 L38,32.40625 C38,32.1140625 37.7625,31.875 37.4722222,31.875 L35.8888889,31.875 L35.8888889,2.125 L37.4722222,2.125 Z M33.7777778,31.875 L27.4444444,31.875 L27.4444444,21.25 C27.4444444,16.5630469 23.6569792,12.75 19,12.75 C14.3430208,12.75 10.5555556,16.5630469 10.5555556,21.25 L10.5555556,31.875 L4.22222222,31.875 L4.22222222,8.5 L33.7777778,8.5 L33.7777778,31.875 Z M33.7777778,6.375 L4.22222222,6.375 L4.22222222,2.125 L33.7777778,2.125 L33.7777778,6.375 Z" id="Shape"></path>
        </g>
    </g>
</svg>