<?xml version="1.0" encoding="UTF-8"?>
<svg width="20px" height="20px" viewBox="0 0 20 20" version="1.1" xmlns="http://www.w3.org/2000/svg" xmlns:xlink="http://www.w3.org/1999/xlink">
    <!-- Generator: Sketch 64 (93537) - https://sketch.com -->
    <title>cad-2</title>
    <desc>Created with Sketch.</desc>
    <defs>
        <linearGradient x1="0%" y1="0%" x2="100%" y2="100%" id="linearGradient-1">
            <stop stop-color="#369852" offset="0%"></stop>
            <stop stop-color="#032B44" offset="75.0937365%"></stop>
            <stop stop-color="#04425E" offset="87.0372654%"></stop>
            <stop stop-color="#0A87AC" offset="100%"></stop>
        </linearGradient>
    </defs>
    <g id="Page-1" stroke="none" stroke-width="1" fill="none" fill-rule="evenodd">
        <g id="6.-product" transform="translate(-1029.000000, -423.000000)" fill="url(#linearGradient-1)" fill-rule="nonzero">
            <g id="Group-2" transform="translate(579.000000, -115.683782)">
                <g id="Group" transform="translate(407.413686, 191.683782)">
                    <g transform="translate(5.586314, 138.000000)" id="Group-7-Copy-5">
                        <g transform="translate(22.000000, 200.000000)">
                            <g id="Group-6" transform="translate(6.000000, 0.000000)">
                                <g id="cad-2" transform="translate(9.000000, 9.000000)">
                                    <path d="M16.5217391,10 C16.5217391,10.24 16.3269565,10.4347826 16.0869565,10.4347826 C15.8469565,10.4347826 15.6521739,10.24 15.6521739,10 L15.6521739,8.26086957 C15.6521739,8.02086957 15.8469565,7.82608696 16.0869565,7.82608696 C16.3269565,7.82608696 16.5217391,8.02086957 16.5217391,8.26086957 L16.521,8.695 L19.13,8.695 L19.1304348,0.869565217 L10.434,0.869 L10.434,8.695 L12.173,8.695 L12.173913,8.26086957 C12.173913,8.02086957 12.3686957,7.82608696 12.6086957,7.82608696 C12.8486957,7.82608696 13.0434783,8.02086957 13.0434783,8.26086957 L13.0434783,10 C13.0434783,10.24 12.8486957,10.4347826 12.6086957,10.4347826 C12.3686957,10.4347826 12.173913,10.24 12.173913,10 L12.173,9.565 L10.434,9.565 L10.434,12.173 L10.8695652,12.173913 C11.1095652,12.173913 11.3043478,12.3686957 11.3043478,12.6086957 C11.3043478,12.8486957 11.1095652,13.0434783 10.8695652,13.0434783 L9.13043478,13.0434783 C8.89043478,13.0434783 8.69565217,12.8486957 8.69565217,12.6086957 C8.69565217,12.3686957 8.89043478,12.173913 9.13043478,12.173913 L9.565,12.173 L9.565,9.565 L7.826,9.565 L7.82608696,10 C7.82608696,10.24 7.63130435,10.4347826 7.39130435,10.4347826 C7.15130435,10.4347826 6.95652174,10.24 6.95652174,10 L6.95652174,8.26086957 C6.95652174,8.02086957 7.15130435,7.82608696 7.39130435,7.82608696 C7.63130435,7.82608696 7.82608696,8.02086957 7.82608696,8.26086957 L7.826,8.695 L9.565,8.695 L9.565,0.869 L0.869565217,0.869565217 L0.869,8.695 L3.478,8.695 L3.47826087,8.26086957 C3.47826087,8.02086957 3.67304348,7.82608696 3.91304348,7.82608696 C4.15304348,7.82608696 4.34782609,8.02086957 4.34782609,8.26086957 L4.34782609,10 C4.34782609,10.24 4.15304348,10.4347826 3.91304348,10.4347826 C3.67304348,10.4347826 3.47826087,10.24 3.47826087,10 L3.478,9.565 L0.869,9.565 L0.869565217,12.173913 L1.30434783,12.173913 C1.54434783,12.173913 1.73913043,12.3686957 1.73913043,12.6086957 C1.73913043,12.822029 1.58522813,12.999635 1.38246794,13.0364693 L1.30434783,13.0434783 L0.434782609,13.0434783 C0.194782609,13.0434783 -1.42286183e-12,12.8478261 -1.42286183e-12,12.6086957 L-1.42286183e-12,0.434782609 C-1.42286183e-12,0.194782609 0.194782609,0 0.434782609,0 L19.5652174,0 C19.8052174,0 20,0.194782609 20,0.434782609 L20,19.5652174 C20,19.8052174 19.8052174,20 19.5652174,20 L0.434782609,20 C0.194782609,20 -1.42286183e-12,19.8052174 -1.42286183e-12,19.5652174 L-1.42286183e-12,16.0869565 C-1.42286183e-12,15.8469565 0.194782609,15.6521739 0.434782609,15.6521739 L1.30434783,15.6521739 C1.54434783,15.6521739 1.73913043,15.8469565 1.73913043,16.0869565 C1.73913043,16.3269565 1.54434783,16.5217391 1.30434783,16.5217391 L0.869565217,16.5217391 L0.869565217,19.1304348 L9.565,19.13 L9.565,16.521 L9.13043478,16.5217391 C8.89043478,16.5217391 8.69565217,16.3269565 8.69565217,16.0869565 C8.69565217,15.8469565 8.89043478,15.6521739 9.13043478,15.6521739 L10.8695652,15.6521739 C11.1095652,15.6521739 11.3043478,15.8469565 11.3043478,16.0869565 C11.3043478,16.3269565 11.1095652,16.5217391 10.8695652,16.5217391 L10.434,16.521 L10.434,19.13 L19.1304348,19.1304348 L19.13,9.565 L16.521,9.565 L16.5217391,10 Z" id="Combined-Shape"></path>
                                </g>
                            </g>
                        </g>
                    </g>
                </g>
            </g>
        </g>
    </g>
</svg>