<?xml version="1.0" encoding="UTF-8"?>
<svg width="19px" height="19px" viewBox="0 0 19 19" version="1.1" xmlns="http://www.w3.org/2000/svg" xmlns:xlink="http://www.w3.org/1999/xlink">
    <!-- Generator: Sketch 61.2 (89653) - https://sketch.com -->
    <title>cad-1</title>
    <desc>Created with Sketch.</desc>
    <defs>
        <linearGradient x1="0%" y1="0%" x2="100%" y2="100%" id="linearGradient-1">
            <stop stop-color="#369852" offset="0%"></stop>
            <stop stop-color="#032B44" offset="75.0937365%"></stop>
            <stop stop-color="#04425E" offset="87.0372654%"></stop>
            <stop stop-color="#0A87AC" offset="100%"></stop>
        </linearGradient>
    </defs>
    <g id="Page-1" stroke="none" stroke-width="1" fill="none" fill-rule="evenodd">
        <g id="6.-product" transform="translate(-1147.000000, -222.000000)" fill="url(#linearGradient-1)" fill-rule="nonzero">
            <g id="Group-2" transform="translate(579.000000, -115.683782)">
                <g id="Group" transform="translate(407.413686, 191.683782)">
                    <g transform="translate(5.586314, 138.000000)" id="Group-7-Copy">
                        <g transform="translate(124.000000, 0.000000)">
                            <g id="Group-6" transform="translate(23.000000, 0.000000)">
                                <g id="cad-1" transform="translate(8.000000, 8.000000)">
                                    <path d="M3.1136,14.1056 C3.0592,13.8912 3.1888,13.6736 3.4024,13.62 C3.6128,13.5656 3.8344,13.6944 3.888,13.9088 C3.9623177,14.1980796 3.99991677,14.4977363 3.99999986,14.7989991 C3.99999957,14.7993186 4,14.7996593 4,14.8 C4,14.9932 3.8628,15.15455 3.68058125,15.1918688 L3.6,15.2 L3.6,15.2 L0.799,15.2 L0.8,17.6 L8.8,17.599 L8.8,14.8 C8.8,14.5792 8.9792,14.4 9.2,14.4 C9.4208,14.4 9.6,14.5792 9.6,14.8 L9.6,17.599 L17.6,17.6 L17.599,8.8 L14.8,8.8 C14.5792,8.8 14.4,8.6208 14.4,8.4 L14.4,8.391 L14.4002736,5.628111 C14.3009109,5.64222551 14.2025172,5.66165517 14.1056,5.6864 C14.0728,5.6952 14.0392,5.6992 14.0064,5.6992 C13.828,5.6992 13.6648,5.5792 13.6192,5.3976 C13.5648,5.1832 13.6944,4.9656 13.908,4.912 C14.1984,4.8376 14.4984,4.8 14.8,4.8 L14.8,4.8 C15.0208,4.8 15.2,4.9792 15.2,5.2 L15.2,8 L17.599,8 L17.6,0.8 L9.6,0.799 L9.6,8 L11.2220308,8.0005822 C11.2404143,7.83444406 11.2702293,7.67001067 11.3112,7.5088 C11.3648,7.2936 11.5848,7.164 11.7968,7.22 C12.0112,7.2744 12.1408,7.492 12.0856,7.7056 C12.0288,7.9312 12,8.1648 12,8.4 C12,8.5932 11.8628,8.75455 11.6805812,8.79186875 L11.6,8.8 L11.6,8.8 L9.6,8.8 L9.6,11.6 C9.6,11.8208 9.4208,12 9.2,12 C8.9792,12 8.8,11.8208 8.8,11.6 L8.8,8.8 L6.8,8.8 C6.5792,8.8 6.4,8.6208 6.4,8.4 L6.40027361,5.628111 C6.30091092,5.64222551 6.20251724,5.66165517 6.1056,5.6864 C6.0728,5.6952 6.0392,5.6992 6.0064,5.6992 C5.828,5.6992 5.6648,5.5792 5.6192,5.3976 C5.5648,5.1832 5.6944,4.9656 5.908,4.912 C6.1984,4.8376 6.4984,4.8 6.8,4.8 C7.0208,4.8 7.2,4.9792 7.2,5.2 L7.2,8 L8.8,8 L8.8,0.799 L0.8,0.8 L0.799,8 L3.2220308,8.0005822 C3.24041427,7.83444406 3.27022933,7.67001067 3.3112,7.5088 C3.3648,7.2936 3.5848,7.164 3.7968,7.22 C4.0112,7.2744 4.1408,7.492 4.0856,7.7056 C4.0288,7.9312 4,8.1648 4,8.4 C4,8.5932 3.8628,8.75455 3.68058125,8.79186875 L3.6,8.8 L3.6,8.8 L0.799,8.8 L0.799417801,11.2220308 C0.965555938,11.2404143 1.12998933,11.2702293 1.2912,11.3112 C1.5056,11.3656 1.6352,11.5832 1.58,11.7968 C1.5344,11.9784 1.372,12.0992 1.1936,12.0992 C1.1608,12.0992 1.1272,12.0952 1.0944,12.0864 C0.8688,12.0288 0.6352,12 0.4,12 L0.4,12 C0.1792,12 0,11.8208 0,11.6 L0,0.4 C0,0.1792 0.1792,0 0.4,0 L18,0 C18.2208,0 18.4,0.1792 18.4,0.4 L18.4,18 C18.4,18.2208 18.2208,18.4 18,18.4 L0.4,18.4 C0.1792,18.4 0,18.2208 0,18 L0,14.8 C0,14.5792 0.1792,14.4 0.4,14.4 L3.171889,14.4002736 C3.15777449,14.3009109 3.13834483,14.2025172 3.1136,14.1056 Z M2.4536,11.8424 C2.8064,12.0872 3.1096,12.3904 3.3552,12.7432 C3.4816,12.9248 3.4376,13.1744 3.256,13.3 C3.1856,13.3488 3.1064,13.372 3.0272,13.372 C2.9008,13.372 2.7768,13.312 2.6984,13.2008 C2.5072,12.9256 2.2704,12.6896 1.9968,12.4992 C1.8152,12.3728 1.7704,12.124 1.8968,11.9424 C2.0224,11.76 2.272,11.716 2.4536,11.8424 Z M13.3,5.5448 C13.4264,5.7264 13.3824,5.976 13.2008,6.1016 C12.9256,6.2928 12.6896,6.5296 12.4992,6.8032 C12.4216,6.9152 12.2976,6.9752 12.1704,6.9752 C12.0912,6.9752 12.012,6.952 11.9424,6.904 C11.7608,6.7776 11.716,6.5288 11.8424,6.3472 C12.0872,5.9944 12.3904,5.6912 12.7432,5.4456 C12.9256,5.3192 13.1736,5.364 13.3,5.5448 Z M5.3,5.544 C5.4264,5.7256 5.3824,5.9752 5.2008,6.1008 C4.9264,6.2928 4.6904,6.5288 4.5,6.8032 C4.4216,6.9152 4.2976,6.9752 4.1704,6.9752 C4.0912,6.9752 4.012,6.952 3.9424,6.904 C3.7616,6.7776 3.7168,6.528 3.8424,6.3472 C4.0872,5.9944 4.3904,5.6912 4.7432,5.4456 C4.9256,5.3184 5.1744,5.3632 5.3,5.544 Z" id="Combined-Shape"></path>
                                </g>
                            </g>
                        </g>
                    </g>
                </g>
            </g>
        </g>
    </g>
</svg>