<?xml version="1.0" encoding="UTF-8"?>
<svg width="20px" height="20px" viewBox="0 0 20 20" version="1.1" xmlns="http://www.w3.org/2000/svg" xmlns:xlink="http://www.w3.org/1999/xlink">
    <!-- Generator: Sketch 61.2 (89653) - https://sketch.com -->
    <title>cad-3</title>
    <desc>Created with Sketch.</desc>
    <defs>
        <linearGradient x1="0%" y1="0%" x2="100%" y2="100%" id="linearGradient-1">
            <stop stop-color="#369852" offset="0%"></stop>
            <stop stop-color="#032B44" offset="75.0937365%"></stop>
            <stop stop-color="#04425E" offset="87.0372654%"></stop>
            <stop stop-color="#0A87AC" offset="100%"></stop>
        </linearGradient>
    </defs>
    <g id="Page-1" stroke="none" stroke-width="1" fill="none" fill-rule="evenodd">
        <g id="6.-product" transform="translate(-1028.000000, -322.000000)" fill="url(#linearGradient-1)" fill-rule="nonzero">
            <g id="Group-2" transform="translate(579.000000, -115.683782)">
                <g id="Group" transform="translate(407.413686, 191.683782)">
                    <g transform="translate(5.586314, 138.000000)" id="Group-7-Copy-2">
                        <g transform="translate(12.000000, 100.000000)">
                            <g id="Group-6" transform="translate(16.000000, 0.000000)">
                                <g id="cad-3" transform="translate(8.000000, 8.000000)">
                                    <path d="M4.4,9.6 C4.6848,9.6 4.9664,9.616 5.2432,9.6464 C5.4624,9.6704 5.6216,9.868 5.5968,10.088 C5.5744,10.292 5.4008,10.444 5.2,10.444 C5.1856,10.444 5.1704,10.4432 5.156,10.4416 C5.03818201,10.4287196 4.91964644,10.4187095 4.80039328,10.4117396 L4.8,18.8 C4.8,18.9932 4.6628,19.15455 4.48058125,19.1918688 L4.4,19.2 L4.4,19.2 L0.4,19.2 C0.1792,19.2 0,19.0208 0,18.8 L0,17.2 C0,16.9792 0.1792,16.8 0.4,16.8 L4,16.8 L4,10 C4,9.7792 4.1792,9.6 4.4,9.6 Z M14.8,0 C15.0208,0 15.2,0.1792 15.2,0.4 L15.2,2.4 L15.6,2.4 C16.2616,2.4 16.8,2.9384 16.8,3.6 L16.8,4 L18.8,4 C19.0208,4 19.2,4.1792 19.2,4.4 C19.2,4.6208 19.0208,4.8 18.8,4.8 L16.8,4.8 L16.8,5.2 C16.8,5.8616 16.2616,6.4 15.6,6.4 L15.2,6.4 L15.2,16.8 L18.8,16.8 C19.0208,16.8 19.2,16.9792 19.2,17.2 L19.2,18.8 C19.2,19.0208 19.0208,19.2 18.8,19.2 L11.6,19.2 C11.3792,19.2 11.2,19.0208 11.2,18.8 L11.2,17.2 C11.2,16.9448 11.1856,16.6928 11.1584,16.4448 C11.1344,16.2256 11.2928,16.028 11.512,16.0032 C11.7344,15.9776 11.9288,16.1376 11.9536,16.3568 C11.9696835,16.5032446 11.9817364,16.6510328 11.9895216,16.7999275 L14.4,16.8 L14.4,6.4 L14,6.4 C13.3384,6.4 12.8,5.8616 12.8,5.2 L12.8,4.8 L0.4,4.8 C0.1792,4.8 0,4.6208 0,4.4 C0,4.1792 0.1792,4 0.4,4 L12.8,4 L12.8,3.6 C12.8,2.9384 13.3384,2.4 14,2.4 L14.4,2.4 L14.4,0.4 C14.4,0.1792 14.5792,0 14.8,0 Z M2.4,17.6 L0.8,17.6 L0.8,18.4 L2.4,18.4 L2.4,17.6 Z M12.8,17.6 L12,17.6 L12,18.4 L12.8,18.4 L12.8,17.6 Z M4,17.6 L3.2,17.6 L3.2,18.4 L4,18.4 L4,17.6 Z M18.4,17.6 L13.6,17.6 L13.6,18.4 L18.4,18.4 L18.4,17.6 Z M11.0824,13.5776 C11.316,14.0064 11.5072,14.46 11.6528,14.924 C11.7192,15.1352 11.6016,15.3592 11.3904,15.4248 C11.3512,15.4376 11.3112,15.4432 11.2712,15.4432 C11.1008,15.4432 10.9432,15.3336 10.8896,15.1624 C10.7592,14.7472 10.588,14.3432 10.3792,13.9592 C10.2736,13.7648 10.3456,13.5224 10.54,13.4168 C10.7336,13.312 10.9768,13.3832 11.0824,13.5776 Z M9.2328,11.3344 C9.6096,11.6448 9.9568,11.9928 10.2664,12.368 C10.4072,12.5384 10.3832,12.7904 10.212,12.9312 C10.1368,12.992 10.0472,13.0216 9.9576,13.0216 C9.8416,13.0216 9.7272,12.972 9.6488,12.876 C9.372,12.5408 9.0608,12.2288 8.7232,11.9512 C8.5528,11.8104 8.5288,11.5584 8.6696,11.388 C8.8088,11.2184 9.0624,11.1928 9.2328,11.3344 Z M6.6736,9.9464 C7.1376,10.092 7.5904,10.2832 8.02,10.516 C8.2144,10.6216 8.2864,10.864 8.1808,11.0584 C8.1096,11.192 7.9712,11.268 7.8296,11.268 C7.7648,11.268 7.7,11.252 7.6392,11.2192 C7.2552,11.0112 6.8504,10.8392 6.4352,10.7096 C6.224,10.6432 6.1072,10.4192 6.1728,10.2088 C6.2384,9.9976 6.4616,9.8792 6.6736,9.9464 Z M15.6,3.2 L14,3.2 C13.7792,3.2 13.6,3.3792 13.6,3.6 L13.6,5.2 C13.6,5.4208 13.7792,5.6 14,5.6 L15.6,5.6 C15.8208,5.6 16,5.4208 16,5.2 L16,3.6 C16,3.3792 15.8208,3.2 15.6,3.2 Z" id="Combined-Shape"></path>
                                </g>
                            </g>
                        </g>
                    </g>
                </g>
            </g>
        </g>
    </g>
</svg>