<?xml version="1.0" encoding="UTF-8"?>
<svg width="20px" height="20px" viewBox="0 0 20 20" version="1.1" xmlns="http://www.w3.org/2000/svg" xmlns:xlink="http://www.w3.org/1999/xlink">
    <!-- Generator: Sketch 61.2 (89653) - https://sketch.com -->
    <title>pillar</title>
    <desc>Created with Sketch.</desc>
    <defs>
        <linearGradient x1="0%" y1="0%" x2="100%" y2="100%" id="linearGradient-1">
            <stop stop-color="#369852" offset="0%"></stop>
            <stop stop-color="#032B44" offset="75.0937365%"></stop>
            <stop stop-color="#04425E" offset="87.0372654%"></stop>
            <stop stop-color="#0A87AC" offset="100%"></stop>
        </linearGradient>
    </defs>
    <g id="Page-1" stroke="none" stroke-width="1" fill="none" fill-rule="evenodd">
        <g id="6.-product" transform="translate(-1028.000000, -222.000000)" fill="url(#linearGradient-1)" fill-rule="nonzero">
            <g id="Group-2" transform="translate(579.000000, -115.683782)">
                <g id="Group" transform="translate(407.413686, 191.683782)">
                    <g transform="translate(5.586314, 138.000000)" id="Group-7">
                        <g>
                            <g id="Group-6" transform="translate(28.000000, 0.000000)">
                                <g id="pillar" transform="translate(8.000000, 8.000000)">
                                    <path d="M16.4,0 C16.5232,0 16.64,0.0568 16.716,0.1536 C16.792,0.2504 16.8184,0.3768 16.7888,0.4968 L16.5029693,1.63945878 C18.0295845,1.881371 19.2,3.20628997 19.2,4.8 C19.2,6.5648 17.7648,8 16,8 L16,18.8 C16,19.0208 15.8208,19.2 15.6,19.2 C15.3792,19.2 15.2,19.0208 15.2,18.8 L15.1998886,7.89878565 C13.8211369,7.5427137 12.8,6.28861114 12.8,4.8 C12.8,4.5792 12.9792,4.4 13.2,4.4 C13.4208,4.4 13.6,4.5792 13.6,4.8 C13.6,6.1232 14.6768,7.2 16,7.2 C17.3232,7.2 18.4,6.1232 18.4,4.8 C18.4,3.4768 17.3232,2.4 16,2.4 L3.2,2.4 L3.2,2.4 C1.8768,2.4 0.8,3.4768 0.8,4.8 C0.8,6.1232 1.8768,7.2 3.2,7.2 C4.5232,7.2 5.6,6.1232 5.6,4.8 C5.6,4.5792 5.7792,4.4 6,4.4 C6.2208,4.4 6.4,4.5792 6.4,4.8 C6.4,6.28825105 5.37935707,7.54210696 4.00111184,7.8985271 L4,18.8 C4,19.0208 3.8208,19.2 3.6,19.2 C3.3792,19.2 3.2,19.0208 3.2,18.8 L3.2,8 L3.2,8 C1.4352,8 0,6.5648 0,4.8 C0,3.20594223 1.17092627,1.88079283 2.69803004,1.63930058 L2.412,0.4968 C2.3824,0.3776 2.4088,0.2504 2.484,0.1536 C2.5592,0.0568 2.6768,0 2.8,0 L16.4,0 Z M6,8.8 C6.2208,8.8 6.4,8.9792 6.4,9.2 L6.4,18.8 C6.4,19.0208 6.2208,19.2 6,19.2 C5.7792,19.2 5.6,19.0208 5.6,18.8 L5.6,9.2 C5.6,8.9792 5.7792,8.8 6,8.8 Z M8.4,8.8 C8.6208,8.8 8.8,8.9792 8.8,9.2 L8.8,18.8 C8.8,19.0208 8.6208,19.2 8.4,19.2 C8.1792,19.2 8,19.0208 8,18.8 L8,9.2 C8,8.9792 8.1792,8.8 8.4,8.8 Z M10.8,8.8 C11.0208,8.8 11.2,8.9792 11.2,9.2 L11.2,18.8 C11.2,19.0208 11.0208,19.2 10.8,19.2 C10.5792,19.2 10.4,19.0208 10.4,18.8 L10.4,9.2 C10.4,8.9792 10.5792,8.8 10.8,8.8 Z M13.2,8.8 C13.4208,8.8 13.6,8.9792 13.6,9.2 L13.6,18.8 C13.6,19.0208 13.4208,19.2 13.2,19.2 C12.9792,19.2 12.8,19.0208 12.8,18.8 L12.8,9.2 C12.8,8.9792 12.9792,8.8 13.2,8.8 Z M12.4,6.4 C12.6208,6.4 12.8,6.5792 12.8,6.8 C12.8,7.0208 12.6208,7.2 12.4,7.2 L6.8,7.2 C6.5792,7.2 6.4,7.0208 6.4,6.8 C6.4,6.5792 6.5792,6.4 6.8,6.4 L12.4,6.4 Z M3.2,3.2 C4.0824,3.2 4.8,3.9176 4.8,4.8 C4.8,5.6824 4.0824,6.4 3.2,6.4 C2.3176,6.4 1.6,5.6824 1.6,4.8 C1.6,3.9176 2.3176,3.2 3.2,3.2 Z M16,3.2 C16.8824,3.2 17.6,3.9176 17.6,4.8 C17.6,5.6824 16.8824,6.4 16,6.4 C15.1176,6.4 14.4,5.6824 14.4,4.8 C14.4,3.9176 15.1176,3.2 16,3.2 Z M3.2,4 C2.7584,4 2.4,4.3584 2.4,4.8 C2.4,5.2416 2.7584,5.6 3.2,5.6 C3.6416,5.6 4,5.2416 4,4.8 C4,4.3584 3.6416,4 3.2,4 Z M16,4 C15.5584,4 15.2,4.3584 15.2,4.8 C15.2,5.2416 15.5584,5.6 16,5.6 C16.4416,5.6 16.8,5.2416 16.8,4.8 C16.8,4.3584 16.4416,4 16,4 Z M11.6,4.8 C11.8208,4.8 12,4.9792 12,5.2 C12,5.4208 11.8208,5.6 11.6,5.6 L7.6,5.6 C7.3792,5.6 7.2,5.4208 7.2,5.2 C7.2,4.9792 7.3792,4.8 7.6,4.8 L11.6,4.8 Z M15.888,0.8 L3.3128,0.8 L3.5128,1.6 L15.688,1.6 L15.888,0.8 Z" id="Combined-Shape"></path>
                                </g>
                            </g>
                        </g>
                    </g>
                </g>
            </g>
        </g>
    </g>
</svg>