<?xml version="1.0" encoding="UTF-8"?>
<svg width="20px" height="20px" viewBox="0 0 20 20" version="1.1" xmlns="http://www.w3.org/2000/svg" xmlns:xlink="http://www.w3.org/1999/xlink">
    <!-- Generator: Sketch 61.2 (89653) - https://sketch.com -->
    <title>ruler-2</title>
    <desc>Created with Sketch.</desc>
    <defs>
        <linearGradient x1="0%" y1="0.00833229178%" x2="100%" y2="99.9916677%" id="linearGradient-1">
            <stop stop-color="#369852" offset="0%"></stop>
            <stop stop-color="#032B44" offset="75.0937365%"></stop>
            <stop stop-color="#04425E" offset="87.0372654%"></stop>
            <stop stop-color="#0A87AC" offset="100%"></stop>
        </linearGradient>
    </defs>
    <g id="Page-1" stroke="none" stroke-width="1" fill="none" fill-rule="evenodd">
        <g id="6.-product" transform="translate(-1148.000000, -322.000000)" fill="url(#linearGradient-1)" fill-rule="nonzero">
            <g id="Group-2" transform="translate(579.000000, -115.683782)">
                <g id="Group" transform="translate(407.413686, 191.683782)">
                    <g transform="translate(5.586314, 138.000000)" id="Group-7-Copy-3">
                        <g transform="translate(139.000000, 100.000000)">
                            <g id="Group-6" transform="translate(9.000000, 0.000000)">
                                <g id="ruler-2" transform="translate(8.000000, 8.000000)">
                                    <path d="M3.5992,-8.31335001e-13 C3.82,-8.31335001e-13 3.9992,0.1792 3.9992,0.4 L3.9992,15.199 L18.7992,15.2 C19.02,15.2 19.1992,15.3792 19.1992,15.6 L19.1992,18.8 C19.1992,19.0208 19.02,19.2 18.7992,19.2 L0.3992,19.2 C0.1784,19.2 -0.0008,19.0208 -0.0008,18.8 L-0.0008,0.4 C-0.0008,0.1792 0.1784,-8.31335001e-13 0.3992,-8.31335001e-13 L3.5992,-8.31335001e-13 Z M3.1992,0.8 L0.7992,0.8 L0.7992,18.4 L18.3992,18.4 L18.3992,16 L16.7982,15.999 L16.7992,16.4 C16.7992,16.6208 16.62,16.8 16.3992,16.8 C16.1784,16.8 15.9992,16.6208 15.9992,16.4 L15.9992,16 L14.3992,16 L14.3992,16.4 C14.3992,16.6208 14.22,16.8 13.9992,16.8 C13.7784,16.8 13.5992,16.6208 13.5992,16.4 L13.5992,16 L11.9992,16 L11.9992,17.2 C11.9992,17.4208 11.82,17.6 11.5992,17.6 C11.3784,17.6 11.1992,17.4208 11.1992,17.2 L11.1992,16 L9.5992,16 L9.5992,16.4 C9.5992,16.6208 9.42,16.8 9.1992,16.8 C8.9784,16.8 8.7992,16.6208 8.7992,16.4 L8.7992,16 L7.1992,16 L7.1992,16.4 C7.1992,16.6208 7.02,16.8 6.7992,16.8 C6.5784,16.8 6.3992,16.6208 6.3992,16.4 L6.3992,16 L4.7992,16 L4.7992,17.2 C4.7992,17.4208 4.62,17.6 4.3992,17.6 C4.1784,17.6 3.9992,17.4208 3.9992,17.2 L3.9982,15.999 L3.5992,16 C3.3784,16 3.1992,15.8208 3.1992,15.6 L3.1992,15.59 L3.1992,15.2 L1.9992,15.2 C1.7784,15.2 1.5992,15.0208 1.5992,14.8 C1.5992,14.5792 1.7784,14.4 1.9992,14.4 L3.1992,14.4 L3.1992,12.8 L2.7992,12.8 C2.5784,12.8 2.3992,12.6208 2.3992,12.4 C2.3992,12.1792 2.5784,12 2.7992,12 L3.1992,12 L3.1992,10.4 L2.7992,10.4 C2.5784,10.4 2.3992,10.2208 2.3992,10 C2.3992,9.7792 2.5784,9.6 2.7992,9.6 L3.1992,9.6 L3.1992,8 L1.9992,8 C1.7784,8 1.5992,7.8208 1.5992,7.6 C1.5992,7.3792 1.7784,7.2 1.9992,7.2 L3.1992,7.2 L3.1992,5.6 L2.7992,5.6 C2.5784,5.6 2.3992,5.4208 2.3992,5.2 C2.3992,4.9792 2.5784,4.8 2.7992,4.8 L3.1992,4.8 L3.1992,3.2 L2.7992,3.2 C2.5784,3.2 2.3992,3.0208 2.3992,2.8 C2.3992,2.5792 2.5784,2.4 2.7992,2.4 L3.1992,2.4 L3.1992,0.8 Z M17.5808,3.5512 L18.8496,4.82 C19.076,5.0464 19.2008,5.348 19.2008,5.6688 C19.2008,5.9888 19.076,6.2904 18.8496,6.5176 L12.0392,13.328 C11.9678857,13.3993143 11.887949,13.4611439 11.8017117,13.5122077 L11.86,13.4624 C11.8369971,13.4854029 11.8118151,13.5050315 11.7850999,13.5212651 C11.6906849,13.5758371 11.5883029,13.6172229 11.4816,13.644 L8.4968,14.3904 C8.464,14.3976 8.4312,14.4008 8.3992,14.4008 C8.2944,14.4008 8.192,14.3592 8.116,14.284 C8.0168,14.1848 7.9768,14.0408 8.0104,13.904 L8.7568,10.9192 C8.8096,10.7088 8.9192,10.516 9.0736,10.3616 L15.884,3.5512 C16.3512,3.0832 17.1136,3.0832 17.5808,3.5512 Z M9.4142,11.583 L8.9488,13.4512 L10.8162,12.984 L9.4142,11.583 Z M16.732,4 C16.6296,4 16.5272,4.0384 16.4488,4.1168 L9.7642,10.801 L11.5982,12.635 L18.2832,5.9512 C18.3592,5.8752 18.4,5.7752 18.4,5.668 C18.4,5.5608 18.3584,5.4608 18.2832,5.3856 L17.0144,4.1168 C16.9368,4.0392 16.8344,4 16.732,4 Z" id="Combined-Shape"></path>
                                </g>
                            </g>
                        </g>
                    </g>
                </g>
            </g>
        </g>
    </g>
</svg>