<?xml version="1.0" encoding="UTF-8"?>
<svg width="32px" height="25px" viewBox="0 0 32 25" version="1.1" xmlns="http://www.w3.org/2000/svg" xmlns:xlink="http://www.w3.org/1999/xlink">
    <title>spa</title>
    <g id="Page-1" stroke="none" stroke-width="1" fill="none" fill-rule="evenodd">
        <g id="spa" fill="#BC9E6C" fill-rule="nonzero">
            <path d="M31.5726475,8.86167033 L31.5704252,8.86167033 C30.3126099,8.86720611 26.4591616,9.09915512 22.7451619,11.2060715 C21.6656852,6.68998538 19.3917285,2.68761928 16.4938643,0.173823369 C16.360527,0.0581256487 16.1810772,0 16.0021829,0 C15.8232887,0 15.6443945,0.0575720711 15.5105016,0.173823369 C12.6120818,2.68761928 10.3370139,6.68998538 9.2564261,11.2066251 C5.54298197,9.09915512 1.68953367,8.86775968 0.431162788,8.86167033 L0.4289405,8.86167033 C0.185044334,8.86167033 -0.00218347461,9.0504403 1.0658141e-14,9.29456802 C0.012816973,10.8412639 0.396717316,16.2807174 4.93185263,20.3334591 C8.16694915,23.4739048 12.2137366,24.4742196 14.7632571,24.7875445 C14.7638126,24.8041518 17.2366642,24.8041518 17.2366642,24.7875445 C19.7861847,24.4742196 23.8329721,23.4739048 27.0680687,20.3334591 C31.6037595,16.281271 31.9871043,10.8412639 32,9.29456802 C32.0037715,9.0504403 31.8170992,8.86167033 31.5726475,8.86167033 Z M6.11911027,19.0137301 C3.05124096,16.2724138 2.14065824,12.7981607 1.87898376,10.7144946 C4.14794035,10.9414614 8.04083428,11.7834529 11.1259263,14.7799685 C12.5354128,16.0376968 13.5926666,17.5456423 14.3576894,19.3901628 C14.8299257,20.528872 15.1116008,21.6764384 15.1116008,23.0338106 C12.7354188,22.9701492 8.74585531,21.5612942 6.11911027,19.0137301 L6.11911027,19.0137301 Z M12.3115173,13.4591324 C11.8387254,12.9996629 11.3420439,12.6055157 10.8414734,12.232958 C11.682054,8.27044945 13.5476652,4.58528332 16.0027385,2.13957745 C18.4567006,4.58472974 20.3217563,8.26989587 21.1612257,12.2324044 C20.6600997,12.6049621 20.1639738,12.9991094 19.6906263,13.4585788 C17.8505714,15.0999364 16.7260934,16.9649393 16.0010718,18.7125838 C15.2760502,16.9649393 14.1515722,15.0999364 12.3115173,13.4591324 Z M25.8291428,19.063552 C23.3507355,21.4694003 19.3772836,22.9668278 16.8899872,23.0332571 C16.8899872,21.6875099 17.1666621,20.5404971 17.6438986,19.3896093 C18.4089214,17.5445351 19.4661752,16.0365897 20.9312189,14.7273787 C23.974643,11.7701671 27.8597589,10.9375864 30.1226042,10.7128338 C29.859263,12.7987143 28.9397912,16.2829317 25.8291428,19.063552 L25.8291428,19.063552 Z" id="Shape"></path>
        </g>
    </g>
</svg>