<?xml version="1.0" encoding="UTF-8"?>
<svg width="39px" height="20px" viewBox="0 0 39 20" version="1.1" xmlns="http://www.w3.org/2000/svg" xmlns:xlink="http://www.w3.org/1999/xlink">
    <title>swimmer</title>
    <g id="Page-1" stroke="none" stroke-width="1" fill="none" fill-rule="evenodd">
        <g id="swimmer" fill="#BC9E6C" fill-rule="nonzero">
            <path d="M7.68,11.52 C10.8612,11.52 13.44,8.9412 13.44,5.76 C13.44,2.5788 10.8612,0 7.68,0 C4.4988,0 1.92,2.5788 1.92,5.76 C1.92,8.9412 4.4988,11.52 7.68,11.52 Z M7.68,1.92 C9.7974,1.92 11.52,3.6426 11.52,5.76 C11.52,7.8774 9.7974,9.6 7.68,9.6 C5.5626,9.6 3.84,7.8774 3.84,5.76 C3.84,3.6426 5.5626,1.92 7.68,1.92 Z M11.3766,14.7948 C11.5404,14.946 12.0036,15.1962 12.7302,15.3048 L15.2646,11.6874 C16.1928,10.3602 17.226,9.1236 18.3102,7.9362 L27.5832,14.3562 C28.2498,13.8768 28.968,13.5888 29.7096,13.494 L19.644,6.525 C21.0384,5.1504 22.5318,3.8736 24.1386,2.7264 C24.7968,2.2566 25.6332,2.085 26.4468,2.2602 L32.4696,3.345 C32.985,3.4368 33.4896,3.0936 33.585,2.5704 C33.6786,2.0484 33.3318,1.5486 32.8104,1.455 L26.8176,0.3768 C25.4976121,0.0936793203 24.1194195,0.379423422 23.0208,1.164 C19.3872,3.759 16.248,6.9294 13.6908,10.5858 L10.968,14.4744 C11.1054,14.58 11.2452,14.6736 11.3766,14.7948 L11.3766,14.7948 Z M37.92,17.28 L36.48,17.28 C34.9176,17.28 33.732,16.7748 33.1146,16.206 C32.5806,15.7134 31.935,15.36 31.2084,15.36 L30.2304,15.36 C29.5038,15.36 28.8582,15.7134 28.3242,16.206 C27.708,16.7748 26.5224,17.28 24.96,17.28 C23.3976,17.28 22.212,16.7748 21.5946,16.206 C21.0606,15.7134 20.415,15.36 19.6884,15.36 L18.7104,15.36 C17.9838,15.36 17.3382,15.7134 16.8042,16.206 C16.188,16.7748 15.0024,17.28 13.44,17.28 C11.8776,17.28 10.692,16.7748 10.0746,16.206 C9.5406,15.7134 8.895,15.36 8.1684,15.36 L7.1904,15.36 C6.4638,15.36 5.8182,15.7134 5.2842,16.206 C4.668,16.7748 3.4824,17.28 1.92,17.28 L0.48,17.28 C0.2148,17.28 0,17.4948 0,17.76 L0,18.72 C0,18.9852 0.2148,19.2 0.48,19.2 L1.92,19.2 C4.2372,19.2 6.2832,18.4686 7.68,17.2896 C9.0768,18.4692 11.1228,19.2 13.44,19.2 C15.7572,19.2 17.8032,18.4686 19.2,17.2896 C20.5968,18.4692 22.6428,19.2 24.96,19.2 C27.2772,19.2 29.3232,18.4686 30.72,17.2896 C32.1168,18.4692 34.1628,19.2 36.48,19.2 L37.92,19.2 C38.1852,19.2 38.4,18.9852 38.4,18.72 L38.4,17.76 C38.4,17.4948 38.1852,17.28 37.92,17.28 Z" id="Shape"></path>
        </g>
    </g>
</svg>