<?xml version="1.0" encoding="UTF-8"?>
<svg width="16px" height="28px" viewBox="0 0 16 28" version="1.1" xmlns="http://www.w3.org/2000/svg" xmlns:xlink="http://www.w3.org/1999/xlink">
    <title>wine-glass</title>
    <g id="Page-1" stroke="none" stroke-width="1" fill="none" fill-rule="evenodd">
        <g id="wine-glass" fill="#BC9E6C" fill-rule="nonzero">
            <path d="M15.9666081,10.5360938 L15.0799479,0.795703125 C15.0393927,0.345078125 14.6610621,0 14.2077321,0 L1.79226787,0 C1.33949342,0 0.960607316,0.345078125 0.920052058,0.795703125 L0.0333919113,10.5360938 C-0.364938493,14.9116406 2.84837121,18.6785156 7.11111765,19.1553906 L7.11111765,26.25 L4.14836165,26.25 C3.33003434,26.25 2.66670588,26.9029688 2.66670588,27.7085156 C2.66670588,27.8698438 2.79948268,28 2.96281482,28 L13.0371852,28 C13.2010729,28 13.3332941,27.8692969 13.3332941,27.7085156 C13.3332941,26.9029688 12.6699657,26.25 11.8516383,26.25 L8.88888235,26.25 L8.88888235,19.1553906 C13.1516288,18.6785156 16.3649385,14.9116406 15.9666081,10.5360938 Z M8,17.4053906 C5.5455736,17.4053906 3.29225684,16.0015625 2.30837518,13.7878125 C1.89226713,12.8510156 1.70393518,11.795 1.80449,10.6925 L2.61781735,1.75 L13.3821826,1.75 L14.1960656,10.6919531 C14.2966204,11.7944531 14.1082884,12.8504688 13.6921804,13.7872656 C12.7077432,16.0010156 10.4544264,17.4053906 8,17.4053906 Z" id="Shape"></path>
        </g>
    </g>
</svg>