<?xml version="1.0" encoding="UTF-8"?>
<svg width="20px" height="20px" viewBox="0 0 20 20" version="1.1" xmlns="http://www.w3.org/2000/svg" xmlns:xlink="http://www.w3.org/1999/xlink">
    <!-- Generator: Sketch 61.2 (89653) - https://sketch.com -->
    <title>workspace-1</title>
    <desc>Created with Sketch.</desc>
    <defs>
        <linearGradient x1="0%" y1="0%" x2="100%" y2="100%" id="linearGradient-1">
            <stop stop-color="#369852" offset="0%"></stop>
            <stop stop-color="#032B44" offset="75.0937365%"></stop>
            <stop stop-color="#04425E" offset="87.0372654%"></stop>
            <stop stop-color="#0A87AC" offset="100%"></stop>
        </linearGradient>
    </defs>
    <g id="Page-1" stroke="none" stroke-width="1" fill="none" fill-rule="evenodd">
        <g id="6.-product" transform="translate(-1150.000000, -422.000000)" fill="url(#linearGradient-1)" fill-rule="nonzero">
            <g id="Group-2" transform="translate(579.000000, -115.683782)">
                <g id="Group" transform="translate(407.413686, 191.683782)">
                    <g transform="translate(5.586314, 138.000000)" id="Group-7-Copy-4">
                        <g transform="translate(144.000000, 200.000000)">
                            <g id="Group-6" transform="translate(6.000000, 0.000000)">
                                <g id="workspace-1" transform="translate(8.000000, 8.000000)">
                                    <path d="M3.6,-1.20081722e-12 C3.8208,-1.20081722e-12 4,0.1792 4,0.4 L4,15.199 L18.8,15.2 C19.0208,15.2 19.2,15.3792 19.2,15.6 L19.2,18.8 C19.2,19.0208 19.0208,19.2 18.8,19.2 L0.4,19.2 C0.1792,19.2 0,19.0208 0,18.8 L0,0.4 C0,0.1792 0.1792,-1.20081722e-12 0.4,-1.20081722e-12 L3.6,-1.20081722e-12 Z M3.2,0.8 L0.8,0.8 L0.8,18.4 L18.4,18.4 L18.4,16 L16.799,15.999 L16.8,16.4 C16.8,16.6208 16.6208,16.8 16.4,16.8 C16.1792,16.8 16,16.6208 16,16.4 L16,16 L14.4,16 L14.4,16.4 C14.4,16.6208 14.2208,16.8 14,16.8 C13.7792,16.8 13.6,16.6208 13.6,16.4 L13.6,16 L12,16 L12,17.2 C12,17.4208 11.8208,17.6 11.6,17.6 C11.3792,17.6 11.2,17.4208 11.2,17.2 L11.2,16 L9.6,16 L9.6,16.4 C9.6,16.6208 9.4208,16.8 9.2,16.8 C8.9792,16.8 8.8,16.6208 8.8,16.4 L8.8,16 L7.2,16 L7.2,16.4 C7.2,16.6208 7.0208,16.8 6.8,16.8 C6.5792,16.8 6.4,16.6208 6.4,16.4 L6.4,16 L4.8,16 L4.8,17.2 C4.8,17.4208 4.6208,17.6 4.4,17.6 C4.1792,17.6 4,17.4208 4,17.2 L3.999,15.999 L3.6,16 C3.3792,16 3.2,15.8208 3.2,15.6 L3.2,15.59 L3.2,15.2 L2,15.2 C1.7792,15.2 1.6,15.0208 1.6,14.8 C1.6,14.5792 1.7792,14.4 2,14.4 L3.2,14.4 L3.2,12.8 L2.8,12.8 C2.5792,12.8 2.4,12.6208 2.4,12.4 C2.4,12.1792 2.5792,12 2.8,12 L3.2,12 L3.2,10.4 L2.8,10.4 C2.5792,10.4 2.4,10.2208 2.4,10 C2.4,9.7792 2.5792,9.6 2.8,9.6 L3.2,9.6 L3.2,8 L2,8 C1.7792,8 1.6,7.8208 1.6,7.6 C1.6,7.3792 1.7792,7.2 2,7.2 L3.2,7.2 L3.2,5.6 L2.8,5.6 C2.5792,5.6 2.4,5.4208 2.4,5.2 C2.4,4.9792 2.5792,4.8 2.8,4.8 L3.2,4.8 L3.2,3.2 L2.8,3.2 C2.5792,3.2 2.4,3.0208 2.4,2.8 C2.4,2.5792 2.5792,2.4 2.8,2.4 L3.2,2.4 L3.2,0.8 Z M7.2,14 C7.2,14.2208 7.0208,14.4 6.8,14.4 C6.5792,14.4 6.4,14.2208 6.4,14 L6.4,12.8 L5.2,12.8 C4.9792,12.8 4.8,12.6208 4.8,12.4 C4.8,12.1792 4.9792,12 5.2,12 L6.4,12 L6.4,7.999 L5.2,8 C4.9792,8 4.8,7.8208 4.8,7.6 C4.8,7.3792 4.9792,7.2 5.2,7.2 L6.4,7.199 L6.4,3.2 L5.2,3.2 C4.9792,3.2 4.8,3.0208 4.8,2.8 C4.8,2.5792 4.9792,2.4 5.2,2.4 L6.4,2.4 L6.4,1.2 C6.4,0.9792 6.5792,0.8 6.8,0.8 C7.0208,0.8 7.2,0.9792 7.2,1.2 L7.2,2.4 L11.2,2.4 L11.2,1.2 C11.2,0.9792 11.3792,0.8 11.6,0.8 C11.8208,0.8 12,0.9792 12,1.2 L12,2.4 L15.999,2.4 L16,1.2 C16,0.9792 16.1792,0.8 16.4,0.8 C16.6208,0.8 16.8,0.9792 16.8,1.2 L16.799,2.4 L18,2.4 C18.2208,2.4 18.4,2.5792 18.4,2.8 C18.4,3.0208 18.2208,3.2 18,3.2 L16.799,3.2 L16.799,7.199 L18,7.2 C18.2208,7.2 18.4,7.3792 18.4,7.6 C18.4,7.8208 18.2208,8 18,8 L16.799,7.999 L16.799,12 L18,12 C18.2208,12 18.4,12.1792 18.4,12.4 C18.4,12.6208 18.2208,12.8 18,12.8 L16.799,12.8 L16.8,14 C16.8,14.2208 16.6208,14.4 16.4,14.4 C16.1792,14.4 16,14.2208 16,14 L15.999,12.8 L12,12.8 L12,14 C12,14.2208 11.8208,14.4 11.6,14.4 C11.3792,14.4 11.2,14.2208 11.2,14 L11.2,12.8 L7.2,12.8 L7.2,14 Z M7.2,12 L11.2,12 L11.2,7.999 L7.2,7.999 L7.2,12 Z M15.999,7.999 L12,7.999 L12,12 L15.999,12 L15.999,7.999 Z M7.2,7.199 L11.2,7.199 L11.2,3.2 L7.2,3.2 L7.2,7.199 Z M15.999,3.2 L12,3.2 L12,7.199 L15.999,7.199 L15.999,3.2 Z" id="Combined-Shape"></path>
                                </g>
                            </g>
                        </g>
                    </g>
                </g>
            </g>
        </g>
    </g>
</svg>