<?xml version="1.0" encoding="utf-8"?>
<!-- Generator: Adobe Illustrator 21.0.0, SVG Export Plug-In . SVG Version: 6.00 Build 0)  -->
<svg version="1.1" id="Capa_1" xmlns="http://www.w3.org/2000/svg" xmlns:xlink="http://www.w3.org/1999/xlink" x="0px" y="0px"
	 viewBox="0 0 113.4 113.4" style="enable-background:new 0 0 113.4 113.4;" xml:space="preserve">
<g>
	<g id="_x34__4_">
		<g>
			<path d="M112.3,107.2L83,78.4c7.7-8.3,12.4-19.3,12.4-31.5C95.4,21,74.1,0,47.7,0S0,21,0,46.9s21.4,46.9,47.7,46.9
				c11.4,0,21.8-3.9,30-10.5l29.4,28.9c1.4,1.4,3.8,1.4,5.2,0C113.7,110.9,113.7,108.6,112.3,107.2z M47.7,86.7
				c-22.3,0-40.4-17.8-40.4-39.7S25.4,7.2,47.7,7.2C70,7.2,88.1,25,88.1,46.9S70,86.7,47.7,86.7z"/>
		</g>
	</g>
</g>
</svg>
